<?xml version="1.0" standalone="no"?>
<!DOCTYPE svg PUBLIC "-//W3C//DTD SVG 20010904//EN"
 "http://www.w3.org/TR/2001/REC-SVG-20010904/DTD/svg10.dtd">
<svg version="1.0" xmlns="http://www.w3.org/2000/svg"
 width="872.000000pt" height="872.000000pt" viewBox="0 0 872.000000 872.000000"
 preserveAspectRatio="xMidYMid meet">
<metadata>
Created by potrace 1.14, written by Peter Selinger 2001-2017
</metadata>
<g transform="translate(0.000000,872.000000) scale(0.100000,-0.100000)"
fill="#000000" stroke="none">
<path d="M4290 8629 c-28 -22 -55 -50 -60 -62 -5 -12 -9 -19 -9 -15 -1 8 -76
-68 -156 -157 -27 -31 -76 -83 -108 -116 -39 -40 -56 -66 -53 -76 5 -13 4 -14
-9 -3 -8 7 -15 8 -15 3 0 -6 -33 -45 -72 -86 -40 -42 -108 -113 -150 -158 -43
-44 -78 -85 -78 -91 0 -5 -4 -6 -10 -3 -5 3 -10 2 -10 -3 0 -5 -27 -37 -59
-71 -33 -34 -61 -66 -63 -71 -2 -5 -92 -11 -200 -14 -108 -2 -201 -6 -206 -9
-4 -4 -19 -8 -33 -10 -13 -3 -72 -23 -131 -45 -59 -23 -116 -38 -127 -35 -22
6 -36 36 -26 53 4 6 3 10 -2 9 -20 -3 -34 2 -28 11 4 6 12 7 18 3 7 -3 4 3 -7
15 -10 12 -22 19 -26 17 -5 -3 -10 -2 -13 2 -2 5 -2 2 -1 -4 2 -7 -1 -13 -6
-13 -6 0 -10 5 -10 12 0 6 -3 8 -6 5 -4 -4 1 -18 10 -33 18 -26 16 -41 -3 -29
-6 3 -9 10 -6 15 3 4 -2 13 -9 19 -10 9 -16 9 -21 1 -4 -6 -4 -14 -1 -17 3 -4
6 -1 6 6 0 7 5 9 10 6 6 -4 8 -10 6 -14 -3 -4 -1 -13 4 -21 5 -8 4 -22 -1 -32
-8 -14 -14 -16 -29 -8 -13 7 -21 7 -25 0 -4 -6 -15 -8 -26 -5 -11 4 -19 2 -19
-5 0 -6 4 -9 9 -5 5 3 12 1 15 -3 3 -5 -9 -9 -27 -9 -24 1 -32 -3 -31 -16 1
-9 -2 -17 -7 -17 -5 0 -9 -9 -9 -20 0 -18 -3 -17 -31 10 -18 16 -41 31 -53 31
-12 1 -34 2 -50 3 -16 1 -31 7 -34 14 -5 15 -34 15 -67 0 -28 -12 -42 -50 -40
-108 1 -35 0 -37 -35 -37 -19 -1 -46 -4 -60 -7 -14 -4 -44 -8 -68 -10 -28 -2
-52 -12 -69 -27 -14 -13 -23 -18 -19 -11 4 6 3 12 -3 12 -13 0 -34 -38 -26
-49 3 -5 15 -7 28 -4 19 4 20 3 4 -7 -9 -6 -23 -8 -30 -3 -20 13 -35 12 -41
-2 -3 -9 2 -12 14 -10 11 2 22 0 25 -5 3 -4 -3 -7 -12 -5 -10 1 -24 -2 -30 -8
-10 -7 -13 -5 -13 8 0 16 -15 13 -15 -3 -1 -18 -17 -31 -32 -25 -10 4 -14 2
-10 -4 6 -10 -44 -53 -62 -53 -5 0 -13 5 -17 12 -5 7 -3 8 6 3 10 -6 12 -4 7
9 -5 11 -3 15 5 10 6 -4 17 1 25 11 7 11 13 13 13 7 0 -7 5 -12 11 -12 8 0 7
6 -2 17 -12 14 -12 16 0 8 10 -6 12 -4 6 5 -6 9 -4 11 5 5 9 -6 11 -4 5 5 -5
8 -4 11 2 7 11 -7 53 19 53 34 0 5 -18 -2 -40 -16 -22 -14 -40 -21 -40 -15 0
5 5 10 12 10 6 0 4 8 -6 19 -10 11 -25 17 -33 14 -12 -5 -12 -7 -2 -14 7 -4
16 -6 20 -3 4 2 6 -8 4 -23 -1 -16 -7 -27 -13 -26 -16 4 -55 -45 -49 -62 8
-20 8 -25 1 -24 -3 0 -11 -7 -18 -16 -12 -16 -13 -16 -29 0 -16 15 -17 15 -17
0 0 -10 -5 -13 -12 -9 -6 4 -8 3 -5 -3 4 -5 -5 -16 -18 -23 -13 -7 -22 -17
-19 -22 3 -4 -2 -8 -10 -8 -28 0 -60 -57 -62 -111 -4 -73 -22 -84 -29 -17 -2
18 -4 36 -4 41 -2 15 -21 6 -54 -25 -19 -18 -54 -49 -77 -68 -47 -40 -69 -72
-52 -78 7 -2 8 -11 2 -28 -7 -17 -6 -24 3 -24 9 0 9 -2 0 -8 -7 -5 -15 -22
-16 -39 -5 -39 -15 -55 -30 -46 -8 5 -8 2 0 -9 7 -8 10 -18 6 -22 -7 -7 -9
-18 -15 -66 -2 -14 -7 -28 -13 -32 -6 -5 -4 -12 5 -18 12 -8 11 -10 -7 -10
-13 0 -23 6 -23 13 0 8 -4 7 -10 -3 -8 -12 -10 -11 -10 8 0 20 -10 27 -33 23
-5 -1 -6 3 -2 9 3 6 10 8 15 5 5 -3 11 -2 14 3 2 4 -7 16 -22 26 -15 10 -40
38 -57 63 -36 54 -62 67 -90 44 -17 -14 -18 -14 -7 0 14 18 7 29 -19 29 -9 0
-19 5 -21 10 -2 6 -12 12 -23 14 -11 2 -24 5 -30 6 -23 5 -46 -1 -40 -10 3 -5
3 -10 -2 -11 -30 -2 -59 -11 -67 -19 -6 -6 -16 -10 -23 -10 -19 0 -53 -32 -46
-43 3 -6 1 -7 -6 -3 -13 9 -63 -42 -55 -56 3 -4 1 -8 -4 -8 -5 0 -9 -6 -10
-12 0 -7 -4 -26 -7 -43 -10 -43 -12 -115 -4 -115 4 0 5 -9 2 -20 -3 -11 -1
-20 4 -20 5 0 9 -10 10 -21 2 -26 42 -71 56 -62 6 3 7 1 3 -5 -7 -12 44 -52
69 -52 9 0 13 -4 10 -10 -6 -9 22 -15 54 -11 7 2 10 -2 7 -8 -4 -5 5 -8 21 -7
37 4 64 16 58 26 -3 5 4 6 15 3 15 -4 20 0 20 13 0 12 3 15 8 7 5 -8 11 -8 24
1 10 7 16 15 13 17 -2 3 5 5 15 6 20 2 20 1 0 -37 -11 -21 -24 -41 -30 -45
-10 -6 -34 -56 -45 -92 -8 -27 -20 -26 -52 6 -19 18 -31 22 -54 17 -21 -4 -28
-2 -23 6 4 7 3 8 -5 4 -6 -4 -9 -11 -6 -16 3 -4 -2 -10 -10 -14 -19 -7 -20
-62 -1 -69 7 -3 13 0 12 6 0 7 2 13 7 15 4 1 6 0 5 -2 -2 -3 7 -15 19 -28 l22
-23 -25 -1 c-15 -1 -21 2 -17 10 4 6 -1 5 -10 -3 -9 -7 -14 -18 -10 -24 3 -5
2 -7 -4 -4 -6 4 -18 0 -28 -7 -14 -10 -15 -15 -5 -21 9 -6 11 -4 5 5 -5 8 -4
11 3 6 6 -4 9 -13 5 -22 -4 -11 -8 -12 -19 -3 -24 19 -26 3 -6 -30 15 -25 21
-29 26 -16 3 9 2 13 -4 10 -6 -3 -10 -2 -10 4 0 5 9 9 19 8 15 -1 17 -4 9 -14
-16 -19 18 -66 43 -60 10 3 17 2 14 -3 -6 -10 24 -22 36 -15 5 4 6 0 3 -8 -3
-10 4 -17 22 -21 14 -4 24 -10 20 -13 -3 -3 0 -13 7 -21 10 -13 9 -15 -3 -8
-9 4 -8 1 3 -7 20 -16 23 -32 4 -21 -6 4 -4 -2 6 -13 18 -21 18 -22 0 -33 -15
-10 -16 -11 -1 -6 10 3 20 1 23 -4 4 -6 2 -10 -3 -10 -5 0 -9 -7 -9 -15 0 -8
4 -12 8 -10 4 3 9 -8 11 -25 3 -19 0 -31 -10 -35 -13 -5 -13 -8 1 -23 20 -22
22 -33 5 -43 -8 -5 -9 -9 -2 -9 7 0 15 -17 19 -37 4 -21 12 -44 18 -52 9 -12
9 -13 -1 -7 -6 4 -12 3 -12 -3 0 -5 5 -11 11 -13 5 -2 11 -18 11 -36 1 -17 5
-32 10 -32 5 0 7 -17 4 -37 -2 -21 1 -44 8 -52 9 -12 8 -13 -7 -8 -11 4 -16 3
-12 -3 3 -6 -1 -13 -10 -16 -13 -6 -14 -8 -3 -15 10 -7 9 -9 -4 -9 -10 0 -22
-9 -28 -20 -6 -11 -18 -20 -27 -20 -9 0 -14 -3 -10 -6 6 -6 -16 -34 -28 -34
-3 0 -33 -27 -66 -60 -34 -32 -69 -62 -80 -65 -10 -3 -16 -12 -13 -20 6 -13
-13 -41 -55 -82 -13 -13 -21 -23 -17 -23 4 0 1 -6 -6 -14 -10 -11 -16 -11 -27
-2 -11 8 -13 8 -8 -1 4 -6 2 -23 -4 -37 -9 -19 -15 -23 -25 -15 -9 8 -11 5 -7
-10 4 -16 1 -19 -21 -17 -21 3 -24 1 -15 -10 9 -11 9 -14 0 -14 -13 0 -81 -67
-81 -80 0 -5 -9 -11 -19 -15 -11 -3 -23 -15 -26 -26 -4 -10 -11 -17 -16 -14
-5 4 -9 2 -9 -2 0 -13 -71 -88 -81 -86 -4 2 -11 -6 -14 -17 -6 -20 -43 -46
-57 -42 -5 1 -7 -2 -5 -7 1 -5 -22 -34 -50 -64 -56 -57 -65 -77 -35 -77 14 0
15 -2 2 -10 -8 -5 -10 -10 -5 -10 6 0 21 -10 35 -21 14 -11 19 -18 13 -14 -9
4 -11 1 -7 -9 7 -19 21 -21 26 -4 3 7 7 5 11 -6 4 -10 3 -15 -3 -11 -17 11
-11 -5 20 -51 31 -44 47 -57 37 -29 -9 21 10 28 33 12 18 -12 18 -15 6 -20 -9
-4 -15 -1 -13 5 1 6 -4 13 -11 15 -10 4 -10 -1 -1 -21 8 -17 16 -23 23 -16 7
5 17 5 26 -2 12 -8 11 -9 -5 -4 -16 5 -13 0 10 -22 17 -16 32 -28 34 -26 2 2
11 -5 18 -16 8 -11 18 -18 23 -15 5 3 11 -3 15 -14 3 -10 98 -112 210 -227
113 -114 205 -211 205 -214 0 -4 11 -13 25 -20 14 -7 23 -15 21 -17 -2 -2 32
-40 76 -83 44 -44 76 -84 73 -90 -4 -6 -8 -20 -11 -33 -2 -12 -7 -33 -10 -47
-3 -14 -8 -45 -9 -70 -4 -63 -8 -73 -27 -88 -21 -16 -23 -40 -4 -65 14 -18 10
-63 -5 -73 -5 -3 -16 2 -25 10 -8 9 -12 16 -7 17 12 1 -30 18 -47 18 -25 1
-40 -14 -50 -47 -5 -19 -5 -30 0 -27 19 12 57 -7 74 -36 20 -33 15 -106 -6
-93 -7 4 -8 2 -4 -5 10 -15 -13 -43 -27 -34 -5 3 -7 1 -3 -5 7 -12 -33 -44
-46 -36 -4 3 -8 1 -8 -5 0 -5 -14 -12 -31 -16 -31 -7 -41 -21 -43 -59 -1 -12
-4 -25 -7 -31 -4 -5 -5 -20 -4 -32 1 -13 -1 -21 -4 -18 -8 9 -41 -66 -34 -78
3 -6 1 -7 -5 -3 -8 5 -12 -2 -12 -19 0 -15 4 -24 10 -20 6 4 9 3 8 -2 -1 -4 3
-17 9 -29 7 -11 8 -26 3 -33 -4 -8 -4 -28 1 -45 12 -41 11 -44 -5 -23 -13 17
-14 16 -12 -7 0 -13 3 -24 6 -24 19 1 30 -3 26 -11 -4 -5 0 -12 6 -15 7 -3 2
-3 -11 0 -16 4 -21 3 -17 -5 4 -6 13 -11 20 -11 8 0 20 -8 27 -17 10 -11 10
-14 2 -9 -7 4 -13 3 -13 -1 0 -5 9 -14 20 -21 21 -13 27 -42 9 -42 -6 0 -8 7
-5 16 4 10 2 13 -6 8 -7 -5 -9 -2 -4 7 4 8 1 6 -7 -3 -8 -10 -18 -14 -22 -10
-5 4 -5 1 -1 -6 4 -7 13 -10 19 -6 7 3 3 -2 -8 -11 -11 -9 -28 -14 -38 -11
-14 3 -17 0 -13 -11 6 -13 4 -14 -9 -3 -9 7 -15 9 -14 4 4 -21 -2 -35 -11 -29
-5 3 -10 -3 -10 -15 0 -12 -4 -18 -10 -15 -5 3 -10 1 -10 -4 0 -6 5 -11 11
-11 5 0 7 -5 4 -10 -4 -6 -10 -8 -15 -5 -5 3 -12 1 -15 -5 -4 -6 -1 -9 6 -8 9
2 13 -15 14 -62 0 -36 4 -71 9 -78 5 -8 3 -18 -4 -25 -10 -9 -11 -9 -6 0 4 7
0 23 -8 34 -15 22 -15 22 -13 1 0 -11 5 -18 10 -15 4 3 7 -3 5 -13 -2 -11 3
-19 12 -19 8 0 19 -10 26 -22 6 -13 14 -20 17 -16 4 3 7 -5 7 -18 0 -17 3 -20
9 -11 7 11 9 10 14 -3 4 -9 20 -21 37 -26 16 -6 27 -15 24 -20 -3 -5 0 -9 5
-9 6 0 11 8 11 18 1 15 2 15 13 2 15 -19 43 -24 53 -9 4 8 3 9 -4 5 -7 -4 -19
-3 -28 2 -11 6 -13 11 -5 16 6 4 11 2 11 -3 0 -6 5 -11 11 -11 5 0 7 6 3 13
-6 9 -4 9 8 -1 9 -7 18 -9 20 -3 1 5 12 3 23 -6 20 -15 20 -15 -3 -8 -12 3
-22 2 -22 -3 0 -8 15 -9 54 -3 5 0 2 9 -5 19 -13 16 -12 16 6 1 11 -8 35 -15
52 -14 18 1 33 -2 33 -6 0 -5 9 -9 20 -9 11 0 20 -5 20 -11 0 -5 4 -7 10 -4 5
3 10 -1 10 -10 0 -9 5 -13 11 -9 6 3 24 -6 40 -22 22 -21 26 -30 17 -41 -9
-11 -8 -13 1 -11 11 2 57 -60 52 -69 -4 -10 0 -43 7 -42 19 3 28 -3 40 -31 8
-17 22 -35 32 -40 21 -11 50 -3 50 14 1 18 39 58 50 51 18 -11 11 24 -7 35
-16 10 -16 11 -1 6 13 -4 16 1 14 27 -2 18 -8 31 -14 30 -6 -2 -9 4 -6 12 4 9
0 15 -8 15 -8 0 -15 6 -15 13 0 6 -2 17 -3 22 -5 20 0 45 9 45 5 0 14 -13 21
-30 7 -16 16 -27 21 -24 5 3 9 -2 9 -10 0 -9 5 -16 11 -16 5 0 7 -5 4 -10 -3
-6 -1 -10 5 -10 6 0 8 -5 5 -10 -4 -6 -3 -10 2 -9 21 4 33 -2 33 -17 0 -9 5
-12 12 -8 7 4 8 3 4 -4 -4 -7 14 -33 41 -61 26 -27 63 -65 81 -85 18 -20 37
-36 43 -36 6 0 9 -7 5 -15 -5 -15 9 -22 16 -7 2 4 14 -4 28 -17 14 -13 19 -20
11 -16 -9 5 -12 4 -7 -3 4 -7 15 -12 25 -12 25 0 44 -23 30 -37 -8 -8 -7 -13
2 -18 8 -5 10 -4 5 3 -4 7 0 12 10 12 10 0 15 -3 11 -6 -9 -9 26 -44 44 -44 9
0 19 -7 23 -15 3 -8 12 -15 21 -15 8 0 15 -5 15 -11 0 -5 4 -7 10 -4 5 3 10
-2 10 -12 0 -15 2 -16 10 -3 8 13 10 12 10 -3 0 -9 4 -16 10 -15 5 2 21 -10
35 -27 15 -16 24 -24 20 -17 -3 6 -1 12 4 12 6 0 11 -5 11 -11 0 -5 4 -7 10
-4 9 5 14 -7 11 -27 0 -4 8 -5 18 -3 10 2 27 -4 38 -13 10 -9 25 -18 33 -20 8
-2 23 -13 33 -25 11 -14 15 -16 11 -5 -5 15 -3 15 30 0 19 -9 32 -20 29 -26
-4 -6 -1 -6 8 1 17 14 52 -3 58 -27 2 -8 5 -22 6 -30 2 -8 4 -15 5 -15 3 0 12
-39 13 -57 2 -22 32 -23 81 -3 20 8 36 11 36 6 0 -8 27 -19 41 -17 3 1 12 -4
20 -10 9 -7 50 -11 106 -10 75 1 93 -2 97 -14 3 -12 4 -11 5 2 1 11 6 15 16
12 8 -4 12 -11 9 -18 -3 -6 2 -2 10 8 15 18 20 15 17 -9 -1 -5 6 -1 14 9 14
18 20 15 16 -7 -1 -5 3 -6 9 -2 6 3 8 11 5 16 -4 5 -2 9 4 9 5 0 12 -8 14 -17
4 -17 5 -17 6 0 0 10 6 15 11 12 6 -4 8 -11 5 -16 -4 -5 -2 -9 4 -9 5 0 12 8
14 17 4 15 5 16 6 2 1 -12 10 -16 36 -16 19 1 35 5 35 10 0 4 -8 6 -17 3 -10
-3 -25 -1 -33 5 -12 9 -12 10 4 5 10 -4 24 -2 31 4 10 8 15 6 20 -10 3 -11 10
-18 15 -15 5 3 7 13 4 23 -3 9 1 6 9 -7 l14 -24 23 23 c18 18 22 19 17 6 -6
-14 -3 -17 9 -12 8 3 27 6 40 6 13 0 24 5 24 11 0 5 -4 7 -10 4 -5 -3 -10 -1
-10 5 0 7 6 10 14 7 7 -3 20 0 27 6 12 10 12 9 2 -2 -7 -8 -13 -20 -13 -25 1
-6 10 0 22 14 l21 25 -7 -25 c-4 -14 -4 -20 1 -15 8 10 15 12 53 18 11 2 22 6
26 9 3 4 12 4 19 2 7 -3 16 0 20 6 3 6 2 9 -3 8 -6 -2 -10 1 -11 7 0 5 7 10
17 10 9 0 16 5 15 12 -2 7 4 10 13 6 15 -5 15 -7 0 -15 -9 -5 -16 -14 -16 -20
0 -7 4 -7 13 1 8 6 17 8 20 4 4 -3 7 1 7 10 0 9 5 17 11 17 5 0 8 -4 5 -9 -4
-5 3 -7 14 -4 11 3 20 8 20 12 0 4 16 5 35 3 19 -2 34 -7 33 -11 -2 -18 4 -21
22 -11 16 8 18 8 14 -5 -4 -9 3 -19 20 -26 22 -10 24 -15 13 -27 -10 -13 -9
-15 4 -10 9 4 21 -2 30 -13 7 -10 19 -19 26 -19 7 0 13 -8 13 -17 0 -9 3 -14
6 -11 5 5 121 -107 149 -144 43 -56 53 -67 58 -61 4 3 9 -2 13 -11 3 -9 10
-16 15 -16 14 0 59 -42 54 -50 -3 -4 4 -10 15 -13 11 -3 20 -12 20 -21 0 -9 5
-16 11 -16 6 0 8 -7 5 -16 -3 -8 -2 -12 4 -9 5 3 16 -10 25 -28 8 -18 31 -42
49 -53 40 -23 121 -97 157 -145 40 -51 125 -134 138 -133 23 3 25 4 13 16 -17
17 -15 24 7 24 11 0 17 -4 15 -8 -3 -4 6 -7 20 -6 13 1 23 6 20 10 -3 4 17 29
43 55 60 61 144 153 139 153 -2 0 33 36 77 80 44 44 84 80 89 80 4 0 8 7 8 15
0 8 3 14 8 13 9 -3 142 131 142 143 0 5 5 9 10 9 6 0 30 20 54 45 25 25 43 45
40 45 -2 0 4 8 14 18 29 30 107 124 110 133 2 5 7 9 12 9 5 0 22 13 38 29 33
33 73 47 99 36 10 -5 23 -9 28 -11 6 -2 31 -10 57 -18 25 -8 49 -12 52 -9 3 4
6 1 6 -5 0 -7 7 -12 15 -12 25 0 85 -33 85 -47 0 -7 3 -13 8 -14 42 -6 64 -4
69 4 4 6 1 7 -7 2 -9 -5 -11 -4 -6 4 4 6 12 9 17 5 5 -3 7 -10 4 -15 -8 -12 9
-11 22 2 7 7 15 6 26 -5 19 -19 34 -20 40 -3 3 6 6 3 7 -8 l1 -20 9 20 c6 15
9 16 9 4 1 -9 8 -16 16 -16 10 0 12 4 5 12 -6 7 -3 11 9 11 13 0 17 -6 13 -21
-3 -11 -1 -17 3 -13 4 4 17 3 28 -3 12 -7 17 -7 13 -1 -3 5 1 12 9 16 8 3 14
2 12 -2 -1 -4 3 -7 8 -7 6 0 8 6 7 15 -3 12 -1 13 9 3 14 -14 33 -18 25 -5 -3
4 10 7 27 6 18 -1 35 3 39 9 6 9 8 9 8 0 0 -13 18 -12 39 1 11 7 12 6 6 -5 -7
-11 -5 -11 10 1 10 8 16 10 12 4 -4 -7 9 -11 38 -10 25 0 45 5 45 10 0 6 5 4
10 -4 9 -13 10 -13 10 0 0 13 1 13 10 0 5 -8 10 -10 10 -4 0 8 15 10 41 8 22
-2 38 0 35 4 -8 13 9 32 33 37 13 2 30 10 39 17 13 11 15 11 8 -2 -4 -9 -1 -8
7 3 8 9 19 17 26 17 6 0 11 4 11 9 0 17 32 42 46 37 8 -3 14 -2 14 3 0 5 12
12 26 15 31 8 96 55 90 65 -3 4 7 8 22 9 27 2 102 46 102 60 0 4 -5 13 -12 20
-9 9 -8 12 4 12 9 0 29 13 44 29 15 17 31 28 36 25 4 -3 8 -1 8 4 0 5 14 15
30 22 17 7 37 22 45 34 11 14 15 16 15 6 0 -10 3 -11 8 -4 4 6 33 29 64 51 32
22 54 44 50 48 -4 5 -1 5 5 1 13 -7 63 38 63 56 0 5 5 6 10 3 6 -3 10 -2 10 4
0 6 18 29 40 53 22 24 40 46 40 49 0 3 12 20 28 36 26 29 65 77 80 99 10 15
74 60 95 67 15 6 17 2 14 -21 -3 -15 -11 -40 -18 -57 -7 -16 -13 -32 -14 -35
-10 -32 -31 -60 -42 -56 -9 4 -11 2 -6 -7 4 -6 6 -21 4 -32 -3 -19 -2 -19 19
3 27 28 60 29 60 2 0 -18 3 -19 20 -10 11 6 20 7 20 3 0 -4 4 -3 8 2 4 6 23
21 44 35 34 22 36 27 33 69 -3 41 1 49 32 78 19 18 39 31 44 28 5 -4 6 2 2 12
-3 10 -3 15 2 11 4 -4 15 -2 23 5 13 10 15 9 8 -3 -4 -9 -2 -8 7 2 8 10 17 15
20 11 4 -3 7 -1 7 5 0 6 12 10 28 10 15 0 34 1 42 3 8 2 14 -1 13 -7 -1 -7 6
-10 17 -7 11 3 26 1 33 -4 11 -8 72 -8 122 0 11 2 24 13 30 25 5 12 16 22 23
22 7 0 10 5 7 10 -3 6 0 10 8 10 8 0 24 18 36 40 11 22 18 40 15 40 -4 0 -1 6
5 14 6 8 10 41 9 80 -3 60 -1 67 15 62 9 -2 15 0 11 5 -3 5 -12 9 -20 9 -8 0
-14 7 -14 16 0 9 5 12 12 8 7 -5 8 -3 4 5 -5 7 -10 10 -13 7 -3 -3 -14 4 -26
14 -11 11 -18 22 -15 26 8 7 -28 44 -42 44 -5 0 -10 4 -10 9 0 5 -11 11 -25
13 -14 3 -25 1 -25 -6 0 -7 -4 -6 -9 2 -10 16 -33 12 -44 -8 -4 -8 -5 7 -2 34
3 27 9 54 15 61 5 6 7 15 3 19 -4 3 2 13 13 21 19 15 19 15 0 8 -14 -5 -17 -3
-11 6 6 11 15 82 16 126 0 33 -15 95 -33 129 -18 37 -18 39 -1 26 15 -12 15
-11 -2 9 -11 13 -19 26 -17 29 2 4 -2 8 -10 10 -9 2 -8 0 2 -7 8 -6 10 -11 4
-11 -6 0 -18 8 -25 17 -10 11 -10 14 -1 9 6 -4 12 -3 12 3 0 5 -8 12 -17 15
-10 3 -23 17 -29 30 -9 20 -9 23 2 19 8 -3 14 -11 14 -18 0 -8 4 -16 9 -19 5
-4 7 4 3 16 -5 20 -3 21 10 10 11 -9 18 -10 23 -2 3 6 12 7 18 4 7 -4 9 -4 5
1 -4 4 -2 17 4 29 17 29 18 45 6 53 -7 4 -8 1 -3 -8 5 -8 4 -11 -1 -6 -5 5 -9
12 -10 15 -2 19 -18 42 -28 42 -6 0 -17 9 -24 20 -7 11 -17 20 -24 20 -7 0 -3
-7 8 -16 18 -14 18 -15 -4 -4 -14 7 -21 17 -18 26 3 7 2 13 -2 11 -4 -1 -8 2
-9 7 -1 5 -12 14 -24 20 -12 6 -23 19 -25 29 -1 9 2 15 7 11 5 -3 6 -10 3 -16
-4 -7 -2 -8 4 -4 14 8 6 33 -13 40 -14 5 -15 23 -1 45 7 11 5 13 -7 8 -11 -4
-14 -2 -10 8 3 8 9 12 14 9 5 -3 6 2 3 10 -3 9 -11 13 -18 9 -6 -4 -5 1 3 10
9 11 10 17 2 17 -6 0 -11 7 -11 16 0 8 4 12 10 9 6 -3 7 1 4 9 -3 9 -11 13
-17 9 -6 -4 -7 -1 -1 8 4 8 10 23 11 34 2 16 1 17 -6 5 -5 -8 -7 -18 -4 -24 3
-5 1 -6 -5 -2 -6 4 -9 13 -5 21 3 9 0 21 -6 29 -6 7 -8 16 -5 19 4 3 3 14 -1
24 -4 10 -9 38 -10 63 -1 39 3 50 34 84 58 62 62 66 76 66 8 0 20 10 26 22 7
13 18 29 26 36 7 8 10 18 7 24 -4 5 4 4 17 -2 13 -7 21 -9 17 -5 -7 7 83 105
97 105 3 0 15 9 27 20 12 11 18 20 14 20 -4 0 2 10 14 22 11 12 20 25 20 29 0
4 16 17 35 29 19 12 33 26 30 30 -3 5 8 17 25 26 16 10 33 26 36 36 3 10 10
18 16 18 6 0 8 3 5 6 -4 4 8 14 26 23 18 10 31 23 29 31 -2 8 0 12 4 8 4 -4
21 9 38 28 17 20 48 54 68 76 21 22 38 45 38 50 0 5 5 6 12 2 8 -5 9 -2 5 10
-4 9 -3 15 1 12 4 -2 21 11 37 31 64 74 96 108 105 109 6 1 14 2 19 3 26 3 14
34 -35 86 -30 32 -54 62 -54 67 0 5 -5 6 -12 2 -6 -4 -8 -3 -5 3 4 6 -2 22
-13 35 -11 14 -17 27 -15 30 3 3 -7 11 -22 19 -34 17 -67 44 -106 86 -16 18
-34 30 -40 26 -6 -3 -7 -1 -4 4 4 6 -13 29 -38 51 -25 22 -45 46 -45 53 0 7
-3 10 -6 7 -6 -7 -74 61 -74 74 0 4 -7 8 -16 8 -8 0 -13 4 -10 8 2 4 -16 30
-41 57 -25 28 -44 51 -42 52 2 0 -14 22 -36 47 -27 30 -51 48 -73 52 -19 4
-36 14 -40 23 -9 22 -49 61 -56 54 -3 -4 -6 1 -6 11 0 9 -4 14 -10 11 -5 -3
-10 1 -10 9 0 9 -4 16 -9 16 -5 0 -13 9 -16 20 -3 11 -12 20 -20 20 -7 0 -15
7 -19 15 -3 10 1 15 12 15 13 0 14 2 3 9 -9 6 -10 11 -2 15 6 4 9 11 6 16 -3
5 -1 11 4 15 6 3 7 13 4 22 -4 10 -2 14 4 10 5 -3 10 0 10 8 0 8 -5 12 -10 8
-5 -3 -3 5 4 18 7 13 11 40 10 59 -3 32 -2 33 16 20 17 -14 17 -14 1 6 -14 16
-15 23 -6 32 9 9 9 12 -2 13 -8 0 -5 4 8 9 20 9 21 12 10 32 -14 25 -18 89 -6
82 5 -3 6 -9 3 -14 -3 -5 -1 -11 4 -14 5 -4 8 2 7 11 -2 10 2 21 8 25 9 7 -12
12 -35 10 -3 -1 -6 6 -6 14 0 10 4 11 11 4 20 -20 33 -11 28 20 -2 16 -8 27
-13 24 -5 -3 -9 -1 -9 5 0 5 8 11 17 13 15 3 15 4 0 19 -9 9 -13 19 -10 23 4
3 8 29 9 56 1 28 6 58 10 68 4 9 8 19 9 22 9 30 42 80 52 80 23 0 93 40 94 53
0 6 2 20 4 30 2 9 -5 22 -16 28 -11 5 -16 15 -13 21 4 7 3 8 -5 4 -6 -4 -9
-11 -7 -15 3 -4 -5 -8 -16 -8 -19 -2 -19 -1 -3 18 11 11 13 19 7 19 -7 0 -12
-5 -12 -11 0 -6 -7 -9 -14 -6 -10 4 -13 1 -9 -9 3 -7 0 -14 -6 -14 -6 0 -11 5
-11 12 0 6 -2 9 -5 6 -11 -11 7 -39 19 -29 6 4 20 5 31 0 18 -7 18 -8 -5 -10
-14 -1 -35 -3 -48 -4 -12 -1 -25 2 -28 7 -3 4 -10 6 -15 3 -5 -4 -9 1 -9 9 0
20 0 20 -39 0 -24 -12 -36 -13 -44 -5 -11 11 0 16 31 12 6 -1 12 3 12 9 0 5
-5 9 -10 7 -6 -1 -12 27 -14 68 -2 39 -7 82 -10 97 -5 23 -4 26 11 21 22 -9
43 -28 43 -41 0 -6 11 -9 25 -8 13 2 22 -1 19 -5 -3 -5 7 -10 23 -10 45 -2 68
2 75 15 6 8 8 8 8 -1 0 -6 9 -9 20 -6 11 3 17 9 14 14 -3 5 9 7 25 5 17 -2 28
0 26 5 -5 7 33 25 46 21 4 -1 6 12 5 27 -1 20 2 27 11 24 8 -3 13 3 13 16 0
12 5 21 11 21 5 0 7 5 4 10 -3 6 3 23 14 39 22 30 27 46 13 37 -5 -3 -9 1 -9
9 0 8 4 12 9 9 4 -3 8 0 8 5 0 6 -4 11 -10 11 -5 0 -7 6 -4 14 13 35 -70 166
-106 166 -5 0 -10 5 -10 10 0 6 -7 10 -15 10 -8 0 -15 5 -15 11 0 5 -4 7 -10
4 -5 -3 -10 -1 -10 6 0 8 -6 6 -18 -4 -15 -14 -19 -15 -19 -2 0 8 5 11 10 8 6
-3 7 -1 3 5 -3 6 -14 11 -24 11 -9 1 -36 4 -59 7 -30 4 -43 2 -43 -6 0 -6 5
-8 13 -4 6 4 3 -3 -8 -16 -17 -20 -17 -22 -3 -17 10 3 20 1 24 -6 4 -7 4 -9
-1 -5 -4 4 -14 3 -22 -3 -7 -6 -13 -8 -14 -3 0 5 -2 17 -4 27 -2 10 1 14 7 11
7 -4 8 -2 4 5 -6 9 -11 9 -22 0 -8 -6 -14 -8 -14 -3 0 5 -4 3 -9 -5 -5 -8 -19
-16 -31 -18 -26 -4 -72 -38 -63 -47 3 -3 1 -6 -6 -6 -7 0 -9 -5 -5 -12 5 -8 2
-9 -9 -5 -9 3 -19 1 -23 -5 -4 -7 -3 -8 4 -4 21 13 13 -15 -13 -46 -14 -16
-23 -34 -20 -38 3 -5 0 -12 -6 -16 -7 -4 -9 -3 -5 4 3 6 1 16 -6 24 -7 7 -14
22 -16 33 -2 20 -2 20 10 0 13 -20 13 -20 38 4 l25 25 -27 -17 c-22 -14 -27
-14 -32 -2 -3 8 -14 12 -28 10 -22 -4 -22 -4 -4 10 11 8 14 15 8 15 -7 0 -12
7 -12 16 0 10 -6 14 -15 10 -8 -3 -21 1 -29 9 -7 8 -16 12 -18 9 -3 -2 -11 2
-17 10 -10 12 -8 17 9 26 11 6 18 16 14 22 -4 7 -9 6 -14 -2 -5 -8 -9 -7 -13
5 -4 9 -3 13 2 10 5 -3 12 -1 16 5 3 5 1 10 -4 10 -6 0 -11 7 -11 15 0 14 -12
19 -32 16 -5 0 -8 6 -8 14 0 8 -4 15 -8 15 -5 0 -19 19 -31 43 -21 40 -83 117
-95 117 -4 0 -6 -8 -6 -17 0 -9 -3 -14 -6 -10 -4 3 -15 -4 -24 -16 -21 -25
-29 -21 -32 16 -1 15 -6 27 -11 27 -5 0 -7 7 -4 15 4 8 1 17 -5 21 -7 5 -8 2
-3 -7 6 -10 5 -11 -4 -3 -7 6 -13 20 -14 32 0 12 -3 19 -5 17 -12 -11 -37 36
-39 73 -1 24 -7 50 -14 58 -6 8 -8 14 -3 15 77 5 112 4 108 -3 -3 -4 0 -8 5
-8 6 0 11 7 11 15 0 8 5 15 11 15 5 0 7 -6 3 -12 -3 -7 4 -2 17 12 13 14 20
20 15 13 -5 -8 -4 -13 2 -13 14 0 23 28 12 35 -6 4 -6 14 1 27 9 17 13 18 20
7 7 -11 9 -11 9 3 0 10 30 35 73 62 86 54 139 104 163 155 24 49 26 153 5 218
-18 52 -65 113 -88 113 -7 0 -13 4 -13 9 0 4 -26 22 -57 39 -48 25 -68 30
-113 28 -30 -2 -74 -9 -98 -16 -45 -14 -119 -78 -139 -120 -40 -82 -46 -108
-44 -175 3 -99 5 -119 12 -125 4 -3 9 -16 10 -30 2 -14 12 -34 22 -45 10 -11
20 -31 23 -45 10 -45 14 -51 26 -44 10 5 10 4 1 -6 -26 -28 -60 -19 -121 30
-33 27 -64 45 -68 42 -4 -4 -4 -1 0 6 4 7 1 15 -9 18 -9 4 -30 27 -47 53 -52
75 -72 89 -131 85 -28 -2 -53 -8 -55 -14 -2 -5 -9 -7 -14 -4 -6 4 -8 2 -4 -4
3 -5 3 -12 -1 -15 -5 -2 -2 -2 5 -1 6 2 12 -3 12 -11 0 -8 6 -15 13 -15 8 0 7
-4 -3 -10 -13 -8 -12 -10 3 -10 15 0 21 -13 20 -47 -1 -7 4 -10 10 -6 6 4 8 0
4 -9 -4 -12 0 -15 16 -12 12 2 16 2 10 -2 -14 -6 -18 -26 -5 -22 4 2 18 -5 32
-15 13 -9 20 -17 15 -18 -56 -6 -75 -5 -75 5 0 7 -3 6 -9 -2 -6 -10 -10 -10
-20 2 -7 8 -19 12 -27 9 -8 -3 -14 0 -14 6 0 6 -7 11 -16 11 -9 0 -18 9 -21
20 -7 25 -16 25 -51 3 -26 -17 -26 -17 -13 0 8 10 10 17 5 16 -5 -1 -16 -1
-23 0 -12 1 -12 4 -3 13 17 17 15 45 -4 52 -9 3 -12 11 -8 18 4 6 -3 4 -15 -5
-23 -15 -50 -13 -62 6 -4 6 -42 -3 -94 -21 -48 -18 -91 -29 -96 -27 -4 3 -7
19 -7 35 1 28 15 37 51 31 4 0 7 14 7 32 0 39 -37 80 -66 75 -11 -2 -38 -13
-61 -24 -33 -18 -50 -20 -85 -14 -24 5 -49 4 -58 -1 -13 -8 -12 -9 2 -7 9 2
18 -1 20 -6 2 -5 -7 -10 -19 -11 -12 -1 -20 1 -18 5 2 4 -16 6 -40 5 -25 -1
-42 1 -40 6 3 4 1 10 -5 14 -5 3 -10 2 -10 -2 0 -5 -9 -9 -20 -10 -11 -1 -20
2 -20 8 0 5 -13 9 -30 9 -16 0 -30 5 -30 11 0 6 -5 7 -12 2 -18 -11 -58 -12
-64 -1 -3 4 -16 5 -29 2 -12 -3 -26 -1 -30 5 -3 6 -12 8 -18 4 -19 -12 -64
-11 -64 2 0 6 6 12 13 12 7 0 11 -4 8 -9 -3 -4 0 -8 5 -8 15 0 14 15 -3 29
-10 9 -16 9 -21 1 -5 -8 -11 -7 -22 1 -12 10 -16 10 -24 -2 -6 -9 -12 -10 -16
-4 -11 13 -110 18 -118 5 -3 -6 -11 -10 -17 -10 -7 0 -6 5 2 15 10 12 8 14 -8
10 -12 -2 -31 9 -52 30 -23 24 -40 33 -59 31 -17 -2 -34 6 -48 21 -12 13 -20
23 -17 23 2 0 -11 14 -31 31 -19 17 -32 35 -29 41 7 12 41 -17 65 -57 11 -16
19 -24 19 -17 0 10 3 10 14 0 8 -8 10 -15 4 -19 -5 -3 -3 -9 6 -12 28 -11 28
13 -1 38 -15 13 -32 25 -36 25 -5 0 -5 5 -2 10 3 6 -1 10 -10 10 -10 0 -13 5
-9 12 4 7 3 8 -4 4 -7 -4 -12 -1 -12 7 0 8 -10 14 -22 14 -42 1 -48 3 -45 16
1 6 -3 11 -8 10 -6 -1 -12 8 -12 19 -2 17 3 14 23 -13 13 -18 24 -28 24 -21 0
7 0 15 0 20 0 4 -6 7 -12 7 -7 1 -13 5 -12 10 0 6 -11 21 -24 34 -14 13 -23
17 -19 8 6 -17 -17 -17 -34 0 -8 8 -7 13 2 18 7 5 10 4 5 -3 -3 -6 -1 -14 5
-17 7 -5 9 0 7 11 -3 13 -12 18 -28 17 -14 -1 -20 0 -14 3 7 3 10 14 7 24 -3
11 -9 17 -14 14 -5 -3 -9 0 -9 6 0 18 -62 80 -73 73 -6 -3 -7 -1 -4 5 4 5 -13
32 -38 59 -25 26 -45 51 -45 55 0 5 -7 8 -15 8 -8 0 -15 5 -15 10 0 16 -124
145 -137 144 -7 -1 -10 2 -7 8 6 9 -11 29 -129 149 -96 97 -95 97 -157 48z
m703 -664 c-3 -9 -8 -14 -10 -11 -3 3 -2 9 2 15 9 16 15 13 8 -4z m292 -258
c4 5 5 3 2 -3 -4 -7 -1 -17 7 -23 11 -9 15 -9 18 1 3 7 21 13 41 13 31 1 34
-1 27 -16 -7 -12 -21 -16 -50 -15 -44 3 -63 -8 -29 -17 12 -3 18 -10 15 -16
-10 -15 -46 10 -43 29 1 8 -4 14 -11 12 -7 -1 -20 11 -30 28 -11 16 -21 28
-24 25 -3 -3 -13 5 -24 17 -10 12 -14 18 -7 15 6 -4 15 -2 18 4 5 7 21 -2 44
-25 21 -20 41 -33 46 -29z m169 -18 c18 15 34 -5 17 -22 -9 -9 -11 -7 -6 8 6
17 5 18 -7 5 -7 -8 -25 -15 -40 -16 -24 -1 -26 1 -17 18 8 15 13 17 25 7 11
-9 17 -9 28 0z m-2847 -106 c-8 -7 -37 9 -31 19 3 5 12 4 20 -3 8 -6 13 -14
11 -16z m3809 -78 c1 -8 -2 -13 -7 -9 -5 3 -7 10 -4 15 4 5 1 9 -4 9 -6 0 -11
5 -11 12 0 17 23 -7 26 -27z m564 -227 c0 -13 -23 -5 -28 10 -2 7 2 10 12 6 9
-3 16 -11 16 -16z m-5290 -115 c0 -3 -7 -3 -15 0 -8 4 -17 2 -20 -3 -4 -6 0
-10 7 -10 7 0 1 -8 -12 -17 -14 -10 -29 -17 -34 -15 -5 2 -6 -4 -3 -11 3 -9
-1 -14 -10 -13 -9 0 -18 -5 -21 -13 -2 -8 0 -11 5 -8 5 3 9 -3 9 -13 0 -10 -4
-17 -7 -14 -4 2 -10 0 -14 -6 -6 -9 8 -15 29 -11 5 1 4 -5 -3 -13 -7 -8 -9
-21 -5 -27 5 -8 3 -9 -6 -4 -8 5 -11 3 -8 -6 3 -8 11 -13 17 -11 18 4 13 -4
-13 -22 -24 -15 -24 -15 -21 15 3 20 0 27 -7 23 -6 -4 -8 -3 -4 4 3 6 2 13 -4
17 -5 3 -10 12 -10 18 0 7 4 6 10 -3 5 -8 10 -13 11 -10 0 3 2 13 4 23 2 12
-1 17 -10 13 -8 -3 -12 2 -10 12 1 9 8 16 15 14 7 -2 10 3 7 12 -3 8 1 20 9
26 8 7 14 9 14 5 0 -5 16 8 35 28 21 22 41 34 50 31 8 -4 15 -8 15 -11z m-93
-230 c-4 -3 -1 -13 6 -21 9 -13 9 -14 0 -8 -7 4 -13 2 -13 -3 0 -6 6 -11 13
-11 6 0 4 -5 -6 -11 -9 -6 -15 -14 -12 -20 4 -5 1 -9 -5 -9 -6 0 -8 12 -5 31
4 23 2 29 -7 23 -7 -4 -4 2 6 14 11 12 21 22 24 22 3 0 2 -3 -1 -7z m5700 -79
c-9 -9 -28 6 -21 18 4 6 10 6 17 -1 6 -6 8 -13 4 -17z m42 -17 c0 -9 -2 -8 -6
1 -2 6 -10 9 -15 6 -7 -4 -8 -2 -4 5 9 13 26 5 25 -12z m-62 -12 c0 -8 -4 -12
-9 -9 -5 3 -6 10 -3 15 9 13 12 11 12 -6z m399 -50 c-3 -20 -16 -31 -17 -14 0
8 -4 6 -9 -6 -7 -16 -9 -17 -9 -3 -1 13 20 35 36 38 1 0 0 -7 -1 -15z m94 -18
c0 -7 -4 -6 -10 3 -8 12 -10 12 -10 1 0 -8 -3 -12 -6 -8 -9 9 6 28 17 22 5 -4
9 -12 9 -18z m-174 -12 c-8 -8 -18 -15 -22 -15 -3 0 -1 7 6 15 7 8 17 15 22
15 5 0 3 -7 -6 -15z m-171 -45 c8 -13 -5 -13 -25 0 -13 8 -13 10 2 10 9 0 20
-4 23 -10z m-6715 -156 c0 -8 -19 -13 -24 -6 -3 5 1 9 9 9 8 0 15 -2 15 -3z
m155 -213 c3 -5 2 -12 -3 -15 -5 -3 -9 1 -9 9 0 17 3 19 12 6z m46 -288 c13
-16 12 -17 -3 -4 -17 13 -22 21 -14 21 2 0 10 -8 17 -17z m50 -16 c-10 -9 -11
-8 -5 6 3 10 9 15 12 12 3 -3 0 -11 -7 -18z m-76 -95 c-3 -3 -11 0 -18 7 -9
10 -8 11 6 5 10 -3 15 -9 12 -12z m45 -8 c0 -8 -19 -13 -24 -6 -3 5 1 9 9 9 8
0 15 -2 15 -3z m90 -294 c0 -5 -2 -10 -4 -10 -3 0 -8 5 -11 10 -3 6 -1 10 4
10 6 0 11 -4 11 -10z m6650 -30 c0 -5 -2 -10 -4 -10 -3 0 -8 5 -11 10 -3 6 -1
10 4 10 6 0 11 -4 11 -10z m-610 -236 c0 -8 -19 -13 -24 -6 -3 5 1 9 9 9 8 0
15 -2 15 -3z m-6110 -208 c0 -2 -7 -7 -16 -10 -8 -3 -12 -2 -9 4 6 10 25 14
25 6z m-676 -822 c5 -14 4 -15 -9 -4 -17 14 -19 20 -6 20 5 0 12 -7 15 -16z
m48 -58 c7 4 8 2 4 -4 -4 -7 -2 -12 5 -12 7 0 9 -3 6 -6 -4 -4 -13 -2 -20 4
-8 7 -17 9 -21 5 -4 -4 -4 1 0 12 5 11 9 14 12 7 2 -7 9 -9 14 -6z m3 -44 c-3
-3 -11 0 -18 7 -9 10 -8 11 6 5 10 -3 15 -9 12 -12z m3080 -32 c3 -5 1 -10 -4
-10 -6 0 -11 5 -11 10 0 6 2 10 4 10 3 0 8 -4 11 -10z m-2970 -40 c3 -5 1 -10
-4 -10 -6 0 -11 5 -11 10 0 6 2 10 4 10 3 0 8 -4 11 -10z m3775 -440 c0 -5 -5
-10 -11 -10 -5 0 -7 5 -4 10 3 6 8 10 11 10 2 0 4 -4 4 -10z m3560 -905 c-7
-9 -15 -13 -19 -10 -3 3 1 10 9 15 21 14 24 12 10 -5z m140 -595 c0 -5 -5 -10
-11 -10 -5 0 -7 5 -4 10 3 6 8 10 11 10 2 0 4 -4 4 -10z m-185 -29 c3 -5 2
-12 -3 -15 -5 -3 -9 1 -9 9 0 17 3 19 12 6z m-40 -40 c3 -5 2 -12 -3 -15 -5
-3 -9 1 -9 9 0 17 3 19 12 6z m-4237 -1154 c8 -10 6 -13 -8 -14 -11 -1 -22 2
-25 8 -4 5 2 6 11 2 12 -4 15 -3 10 5 -10 16 -1 15 12 -1z m-58 -17 c0 -5 -5
-10 -11 -10 -5 0 -7 5 -4 10 3 6 8 10 11 10 2 0 4 -4 4 -10z m-139 -53 c-10
-9 -11 -8 -5 6 3 10 9 15 12 12 3 -3 0 -11 -7 -18z m279 13 c0 -5 -5 -10 -11
-10 -5 0 -7 5 -4 10 3 6 8 10 11 10 2 0 4 -4 4 -10z m-310 -10 c-8 -5 -19 -10
-25 -10 -5 0 -3 5 5 10 8 5 20 10 25 10 6 0 3 -5 -5 -10z m-126 -18 c3 -5 -1
-9 -9 -9 -8 0 -12 4 -9 9 3 4 7 8 9 8 2 0 6 -4 9 -8z m-64 -12 c0 -5 -5 -10
-11 -10 -5 0 -7 5 -4 10 3 6 8 10 11 10 2 0 4 -4 4 -10z m2544 1 c4 -5 -1 -8
-9 -7 -21 3 -31 16 -12 16 9 0 18 -4 21 -9z m246 -26 c-14 -17 -30 -20 -30 -4
0 5 4 8 9 4 5 -3 12 -1 16 5 3 5 9 10 12 10 3 0 0 -7 -7 -15z"/>
<path d="M5196 7751 c-7 -11 -6 -12 12 -15 12 -1 48 -38 45 -45 -2 -3 0 -6 5
-6 4 0 13 -4 20 -8 22 -15 13 -2 -32 42 -27 26 -46 39 -50 32z"/>
<path d="M1626 7134 c-5 -14 -4 -15 9 -4 17 14 19 20 6 20 -5 0 -12 -7 -15
-16z"/>
<path d="M1565 7011 c-3 -5 0 -13 6 -17 7 -4 9 -3 5 4 -3 5 0 13 6 15 9 4 10
6 1 6 -6 1 -14 -3 -18 -8z"/>
<path d="M1395 7980 c-2 -4 -16 -6 -30 -5 -14 2 -25 -1 -25 -6 0 -6 -4 -7 -10
-4 -5 3 -10 1 -10 -5 0 -6 -4 -8 -10 -5 -5 3 -10 1 -10 -5 0 -6 -4 -9 -9 -5
-5 3 -17 -5 -25 -17 -9 -12 -16 -19 -16 -15 0 5 -7 2 -15 -7 -18 -17 -20 -30
-3 -20 7 4 8 3 4 -4 -4 -7 -13 -12 -21 -12 -18 0 -47 -77 -47 -123 1 -26 -3
-35 -11 -30 -7 4 -6 0 2 -10 11 -14 11 -17 0 -17 -11 0 -11 -2 1 -10 13 -9 13
-11 0 -20 -13 -8 -13 -10 2 -10 11 0 15 -5 12 -15 -4 -8 -1 -15 6 -15 9 0 9
-4 -1 -17 -8 -9 -9 -14 -3 -10 6 3 18 -7 28 -24 9 -16 15 -29 11 -29 -3 0 1
-10 10 -23 8 -13 13 -27 10 -30 -3 -4 -2 -5 1 -3 3 3 18 -8 34 -24 26 -26 101
-55 178 -67 49 -8 53 -26 5 -22 -14 1 -20 -45 -10 -76 14 -44 29 -56 77 -60
44 -3 134 30 124 47 -3 4 0 8 7 8 7 0 9 3 6 7 -4 3 -1 13 7 22 7 9 22 41 32
71 10 30 21 57 24 60 7 7 14 83 14 160 0 74 -8 133 -23 173 -6 15 -8 27 -5 27
4 0 1 6 -5 13 -6 8 -8 17 -4 20 3 4 -2 7 -13 8 -10 0 -14 3 -7 6 14 5 -28 53
-47 53 -5 0 -10 4 -10 8 0 13 -50 33 -62 26 -6 -4 -8 -2 -4 4 12 20 -89 39
-112 20 -9 -8 -13 -8 -9 -2 4 7 -2 14 -13 17 -11 3 -22 2 -25 -3z m209 -66 c3
-8 2 -12 -4 -9 -6 3 -10 10 -10 16 0 14 7 11 14 -7z"/>
<path d="M5080 7865 c13 -14 26 -25 28 -25 3 0 -5 11 -18 25 -13 14 -26 25
-28 25 -3 0 5 -11 18 -25z"/>
<path d="M5535 7692 c3 -7 5 -17 5 -20 0 -4 4 -1 9 7 6 8 14 10 22 5 21 -13
38 -13 45 -2 4 6 9 5 15 -3 11 -18 59 -19 66 -2 5 12 7 12 14 2 9 -15 50 -20
43 -5 -3 6 3 1 13 -11 12 -16 22 -20 32 -14 9 6 23 4 38 -6 13 -9 25 -14 26
-12 2 2 8 11 15 20 11 15 10 17 -10 17 -28 0 -49 5 -65 15 -7 5 -13 4 -13 -2
0 -5 5 -11 12 -13 8 -3 6 -7 -5 -11 -9 -3 -16 -3 -16 1 5 30 4 31 -86 35 -33
1 -65 6 -71 9 -6 4 -14 4 -18 1 -9 -10 -36 -13 -36 -4 0 4 -9 7 -20 7 -13 0
-19 -5 -15 -14z m325 -48 c0 -2 -9 0 -20 6 -11 6 -20 13 -20 16 0 2 9 0 20 -6
11 -6 20 -13 20 -16z"/>
<path d="M2600 7650 c13 -9 13 -10 0 -10 -13 0 -13 -2 0 -9 8 -6 18 -7 23 -4
10 6 -11 33 -27 33 -6 0 -4 -5 4 -10z"/>
<path d="M5890 7650 c-8 -5 -12 -12 -9 -15 4 -3 12 1 19 10 14 17 11 19 -10 5z"/>
<path d="M1935 7590 c4 -6 2 -10 -2 -10 -5 0 -17 -15 -28 -32 -10 -18 -23 -36
-29 -40 -6 -4 -11 -13 -11 -20 -1 -7 -6 -12 -13 -10 -7 1 -11 -3 -9 -10 1 -7
-5 -12 -13 -13 -8 0 -16 -11 -18 -25 -2 -19 -1 -22 7 -10 5 8 8 17 5 21 -2 5
5 6 16 4 11 -2 18 0 15 4 -3 5 2 12 11 15 10 4 14 12 10 23 -4 10 -4 15 -1 11
9 -9 66 52 59 63 -5 8 3 11 22 8 4 0 10 3 13 8 3 5 14 1 24 -9 13 -14 14 -18
3 -18 -8 0 -17 6 -19 13 -4 8 -6 7 -6 -3 -1 -13 -2 -13 -11 0 -8 13 -10 13
-10 -2 0 -9 -9 -23 -21 -31 -15 -11 -17 -16 -7 -20 11 -4 11 -6 0 -6 -7 -1
-10 -5 -7 -11 4 -6 -1 -7 -11 -3 -14 5 -16 3 -11 -11 4 -10 3 -15 -3 -11 -5 3
-14 -4 -20 -15 -6 -11 -15 -18 -19 -15 -5 2 -16 -6 -24 -18 -8 -13 -22 -24
-31 -24 -12 0 -13 3 -4 14 6 7 8 16 4 20 -3 3 -6 2 -6 -3 0 -6 -9 -20 -21 -32
l-20 -23 25 5 c14 3 29 0 32 -6 5 -7 2 -8 -7 -4 -8 4 -6 1 5 -8 14 -11 24 -13
37 -5 11 5 19 12 19 15 0 2 -8 0 -18 -5 -14 -7 -19 -6 -19 3 0 16 30 14 54 -4
10 -8 15 -10 11 -6 -9 10 55 58 71 54 14 -4 82 62 75 73 -3 5 0 9 5 9 7 0 7 7
-1 20 -19 29 -26 25 -23 -15 1 -27 -4 -40 -29 -62 l-31 -28 24 28 c14 15 21
27 17 27 -5 0 -3 7 4 15 10 12 10 15 -1 15 -10 0 -10 3 -1 12 9 9 9 15 -1 27
-8 10 -8 12 -1 8 18 -10 27 24 11 40 -16 16 -81 27 -72 13z"/>
<path d="M1905 7369 c-4 -6 -5 -12 -2 -15 2 -3 7 2 10 11 7 17 1 20 -8 4z"/>
<path d="M1830 7299 c0 -5 5 -7 10 -4 6 3 10 8 10 11 0 2 -4 4 -10 4 -5 0 -10
-5 -10 -11z"/>
<path d="M1769 7253 c-13 -16 -12 -17 4 -4 9 7 17 15 17 17 0 8 -8 3 -21 -13z"/>
<path d="M1689 7243 c0 -5 -2 -16 -4 -25 -4 -23 11 -33 19 -12 3 8 11 12 17 9
6 -4 5 2 -3 14 -13 21 -27 28 -29 14z"/>
<path d="M7361 6771 c-9 -6 -10 -11 -2 -15 6 -4 11 -2 11 5 0 6 9 1 20 -12 21
-26 26 -19 10 12 -12 21 -18 23 -39 10z"/>
<path d="M7700 6183 c0 -3 6 -11 14 -19 13 -12 15 -12 13 4 -1 15 -27 29 -27
15z"/>
<path d="M795 6161 c-3 -5 -2 -12 3 -15 5 -3 9 1 9 9 0 17 -3 19 -12 6z"/>
<path d="M7596 3322 c-3 -6 -1 -14 5 -17 14 -9 20 -2 10 14 -6 8 -11 9 -15 3z"/>
<path d="M7776 2923 c13 -14 27 -23 31 -20 3 4 0 7 -7 7 -7 0 -10 3 -7 7 4 3
-1 12 -11 19 -29 22 -32 15 -6 -13z"/>
<path d="M756 2475 c-3 -8 -1 -15 3 -15 5 0 11 7 15 15 3 8 1 15 -3 15 -5 0
-11 -7 -15 -15z"/>
<path d="M665 2091 c-3 -5 -1 -12 5 -16 6 -4 7 -13 1 -23 -10 -20 -4 -42 12
-42 8 0 8 3 -1 12 -7 7 -8 17 -2 29 7 12 6 20 -1 25 -8 4 -7 9 2 15 10 6 10 9
2 9 -6 0 -14 -4 -18 -9z"/>
<path d="M1176 1737 c3 -10 9 -15 12 -12 3 3 0 11 -7 18 -10 9 -11 8 -5 -6z"/>
<path d="M7290 1739 c0 -5 5 -7 10 -4 6 3 10 8 10 11 0 2 -4 4 -10 4 -5 0 -10
-5 -10 -11z"/>
<path d="M1392 1424 c-7 -7 -13 -17 -13 -21 0 -5 -6 -7 -14 -5 -7 1 -16 -2
-20 -8 -5 -8 -12 -7 -23 2 -10 7 -14 8 -10 4 15 -17 -41 -52 -74 -47 -4 0 -5
-6 -2 -14 4 -8 1 -15 -5 -15 -6 0 -11 -6 -11 -14 0 -8 -6 -21 -13 -28 -13 -13
-26 -54 -29 -88 -1 -8 -6 -18 -12 -22 -8 -5 -7 -8 1 -8 13 0 11 -59 -3 -82 -4
-7 -3 -8 4 -4 7 4 10 -5 8 -29 -2 -19 0 -38 6 -41 5 -3 4 -11 -3 -20 -8 -10
-8 -14 0 -14 6 0 11 -9 11 -19 0 -11 9 -22 19 -26 13 -4 18 -12 14 -22 -4 -10
-2 -14 4 -10 6 4 17 1 25 -8 30 -33 38 -45 38 -55 0 -5 4 -10 10 -10 5 0 6 8
3 18 -6 14 -4 15 8 5 14 -12 17 -12 47 -14 10 0 12 -3 5 -6 -7 -2 -13 -9 -13
-14 0 -6 7 -6 18 -1 23 12 131 14 112 2 -8 -5 -18 -6 -22 -4 -4 3 -8 1 -8 -5
0 -5 9 -9 20 -8 11 1 20 5 20 10 0 5 7 6 16 3 14 -5 15 -4 4 9 -11 13 -9 15
11 16 13 1 30 1 37 0 6 -1 12 5 12 14 0 9 4 14 9 11 5 -4 20 7 34 23 14 17 28
27 31 24 3 -4 6 -1 6 6 0 6 9 21 20 33 10 12 17 25 14 30 -3 4 0 8 5 8 6 0 11
8 11 18 0 9 7 30 15 45 8 15 10 25 5 22 -5 -3 -6 7 -1 22 15 60 -6 150 -46
191 -7 8 -10 18 -7 24 4 6 2 8 -4 4 -6 -3 -17 0 -25 8 -26 26 -110 76 -118 70
-5 -3 -9 0 -9 5 0 6 -3 10 -7 10 -21 -3 -32 3 -35 18 -4 21 -58 26 -76 7z"/>
<path d="M7252 1428 c-7 -7 -12 -9 -12 -4 0 4 -11 -2 -25 -13 -15 -11 -35 -18
-45 -16 -13 3 -20 -2 -21 -13 0 -11 -2 -13 -6 -4 -3 9 -12 6 -28 -12 -13 -14
-26 -22 -31 -18 -4 4 -4 -1 0 -12 4 -13 2 -17 -8 -13 -8 3 -22 -3 -32 -14 -9
-10 -13 -19 -8 -19 5 0 0 -8 -11 -17 -16 -13 -17 -15 -2 -10 9 4 17 2 17 -3 0
-6 -4 -11 -10 -11 -5 -1 -15 -2 -22 -3 -6 0 -13 -8 -15 -16 -4 -12 -3 -12 5
-1 7 9 12 10 16 2 4 -6 2 -11 -3 -11 -6 0 -11 -7 -11 -15 0 -8 -5 -15 -11 -15
-5 0 -7 5 -4 10 3 6 2 10 -4 10 -5 0 -9 -9 -8 -19 0 -11 5 -17 10 -14 5 3 7 0
5 -8 -3 -8 -14 -13 -24 -11 -18 3 -18 3 1 -12 11 -8 15 -16 9 -16 -7 0 -15 -7
-18 -16 -5 -13 -4 -14 7 -6 11 9 13 6 9 -18 -2 -16 -7 -28 -11 -26 -4 3 -7 -5
-8 -17 0 -12 1 -16 4 -9 8 21 21 13 15 -10 -3 -13 -1 -19 5 -15 6 4 9 -4 7
-21 -1 -14 3 -33 9 -41 7 -9 7 -12 1 -8 -6 3 -11 0 -11 -7 0 -8 7 -12 14 -9 8
3 13 2 11 -3 -4 -13 75 -89 90 -86 6 2 12 -5 12 -15 0 -14 2 -15 9 -4 6 9 16
11 27 7 30 -12 134 -16 134 -5 0 6 8 6 20 -1 11 -6 19 -7 18 -1 -2 5 2 10 7
11 6 1 16 6 23 12 6 6 12 7 12 4 0 -4 10 2 22 14 12 11 28 20 35 20 12 0 18
20 14 43 -1 5 3 6 8 3 9 -6 26 22 23 37 -1 4 2 7 8 7 6 0 10 9 10 21 0 11 3
18 8 16 4 -3 6 11 6 31 -1 25 -6 36 -15 34 -9 -2 -7 3 4 16 20 22 20 27 14
123 -4 67 -27 117 -54 120 -7 1 -18 2 -25 3 -6 0 -12 9 -14 19 -1 9 2 15 7 11
5 -3 7 -9 5 -13 -3 -4 4 -8 15 -8 19 -2 19 -1 -3 16 -28 22 -64 41 -75 41 -4
-1 3 -7 17 -14 l25 -14 -27 1 c-14 1 -24 5 -21 10 2 4 -1 7 -8 7 -8 0 -7 5 2
17 12 15 12 16 -4 10 -10 -4 -21 -7 -23 -7 -3 0 -3 -4 0 -8 3 -5 -1 -9 -9 -9
-12 0 -12 4 2 20 10 11 12 17 6 13 -7 -4 -21 -2 -31 3 -13 7 -22 7 -30 -1z
m31 -11 c7 3 9 2 5 -2 -5 -5 -20 -10 -34 -11 -25 -3 -25 -2 -8 11 11 7 21 9
22 4 2 -5 9 -6 15 -2z m-218 -116 c-3 -6 -11 -11 -17 -11 -6 0 -6 6 2 15 14
17 26 13 15 -4z m415 -16 c0 -12 -19 -12 -23 0 -4 9 -1 12 9 8 7 -3 14 -7 14
-8z"/>
<path d="M7185 1410 c-3 -6 1 -7 9 -4 18 7 21 14 7 14 -6 0 -13 -4 -16 -10z"/>
<path d="M1276 1373 c-6 -14 -5 -15 5 -6 7 7 10 15 7 18 -3 3 -9 -2 -12 -12z"/>
<path d="M1146 1122 c-3 -5 1 -9 9 -9 8 0 12 4 9 9 -3 4 -7 8 -9 8 -2 0 -6 -4
-9 -8z"/>
<path d="M2100 1126 c0 -2 7 -7 16 -10 8 -3 12 -2 9 4 -6 10 -25 14 -25 6z"/>
<path d="M2230 1060 c0 -5 5 -10 11 -10 5 0 7 5 4 10 -3 6 -8 10 -11 10 -2 0
-4 -4 -4 -10z"/>
<path d="M2275 1040 c-4 -6 1 -7 11 -3 13 5 15 3 9 -7 -5 -9 -4 -11 4 -6 6 4
9 12 6 17 -8 12 -22 12 -30 -1z"/>
<path d="M6950 996 c0 -2 7 -7 16 -10 8 -3 12 -2 9 4 -6 10 -25 14 -25 6z"/>
<path d="M2320 946 c0 -2 7 -7 16 -10 8 -3 12 -2 9 4 -6 10 -25 14 -25 6z"/>
<path d="M1390 802 c0 -5 7 -9 15 -9 8 0 12 4 9 9 -3 4 -9 8 -15 8 -5 0 -9 -4
-9 -8z"/>
</g>
</svg>
