<svg width="82" height="82" viewBox="0 0 82 82" fill="none" xmlns="http://www.w3.org/2000/svg">
<g id="09" style="mix-blend-mode:difference">
<path id="Vector" d="M48.2804 18.6381C48.1635 18.6945 45.167 20.6294 32.5875 28.786C31.3358 29.5975 29.8983 30.5232 29.3872 30.859C29.0366 31.0652 28.7023 31.2976 28.3871 31.5547C28.3657 31.5867 28.3554 31.6252 28.3582 31.6637C28.3608 31.7024 28.3764 31.7389 28.4023 31.7674C28.4443 31.825 29.0234 32.371 29.6918 32.9774L30.9065 34.0833L30.5368 34.1884C28.8124 34.6609 27.7037 34.9901 27.6394 35.0435C27.438 35.206 27.4183 35.0922 28.4529 39.5249C28.7984 40.9928 29.6454 44.6242 30.3351 47.5995C33.7182 62.1645 33.9097 62.9678 34.0117 63.0303C34.0799 63.0659 34.1595 63.0738 34.2333 63.0521C34.6407 62.759 35.0301 62.4418 35.3997 62.1024C35.9802 61.6021 38.4839 59.4318 40.9607 57.2889C43.4375 55.1455 47.5188 51.6128 50.0232 49.4445C52.5276 47.2762 54.7579 45.3489 54.9782 45.1612C55.3324 44.8695 55.3862 44.8078 55.3598 44.7162C55.3431 44.6603 54.7834 43.854 54.1098 42.9324C53.4366 42.0109 52.877 41.224 52.8752 41.1983C52.8734 41.1726 54.6912 40.6993 55.2654 40.6128C55.4966 40.579 55.5831 40.5408 55.6197 40.4493C55.6714 40.3336 55.5704 40.012 50.4084 24.0829C48.5665 18.3889 48.5992 18.4844 48.2804 18.6381ZM44.7085 31.1745C42.8401 37.6816 41.303 43.0075 41.2956 43.0084C41.2881 43.009 28.9861 31.7165 28.9823 31.6827C28.9785 31.6488 30.1377 30.9051 31.5506 29.9853C35.3677 27.5184 38.5977 25.4284 43.5789 22.2014C46.0406 20.6123 48.0605 19.3173 48.0809 19.3298C48.1013 19.3423 46.5724 24.6663 44.7085 31.1745ZM49.3897 22.411C49.8471 23.8283 50.6591 26.326 51.1899 27.9671C51.7204 29.6081 52.8254 33.0048 53.6362 35.5246C54.4472 38.0445 55.1092 40.1118 55.0959 40.1334C55.0701 40.1755 41.8255 43.1822 41.7873 43.1588C41.7696 43.1479 43.2602 37.8952 45.0981 31.4835C46.936 25.0717 48.4437 19.7996 48.4575 19.7571C48.4803 19.6255 48.5148 19.7151 49.3897 22.411ZM53.6018 43.0086C54.2331 43.8728 54.7323 44.5981 54.717 44.6063C54.7014 44.6142 44.0183 47.3193 40.2733 48.2498L39.2978 48.4959L33.2133 41.3307C27.8501 35.0203 28.1375 35.3612 28.2135 35.3201C28.4304 35.2039 31.3281 34.4542 31.3651 34.5084C31.4404 34.586 31.5207 34.6586 31.6054 34.7258C31.7104 34.8149 31.787 34.9074 31.773 34.9303C31.5102 35.0453 31.2411 35.1452 30.967 35.2293C30.1316 35.5047 29.9926 35.5969 30.1079 35.8323C30.1413 35.9038 31.1011 37.0078 32.2386 38.2825C33.3763 39.5569 35.5326 41.9594 37.0285 43.6309C38.5244 45.3023 39.8012 46.7218 39.8786 46.7816C39.999 46.8941 40.0585 46.8919 41.3894 46.5833C49.3611 44.7386 51.7753 44.1626 51.8183 44.0925C51.9309 43.9089 51.8191 43.7192 51.0031 42.7612C50.5516 42.2247 50.1915 41.7759 50.2001 41.7619C50.2087 41.7479 50.6831 41.6264 51.2586 41.4949C52.0818 41.3137 52.3176 41.281 52.3836 41.3478C52.4184 41.3937 52.9753 42.1421 53.6058 43.0111L53.6018 43.0086ZM50.4128 42.794C50.8394 43.2976 51.2009 43.735 51.2235 43.7611C51.2459 43.7872 50.2434 44.055 48.9915 44.3489C46.2947 44.9765 42.4415 45.8773 41.0897 46.1855L40.1195 46.403L37.979 44.0118C36.8011 42.6915 34.6888 40.3372 33.2947 38.7772C31.9006 37.2172 30.7295 35.9028 30.7085 35.8655C30.6876 35.828 30.9064 35.7201 31.4279 35.5505C31.6901 35.45 31.9624 35.3781 32.24 35.3358C32.2681 35.353 34.2903 37.2103 36.7397 39.4611C39.1892 41.7116 41.2491 43.5904 41.323 43.6357C41.443 43.7093 42.014 43.596 45.5466 42.7949C47.7893 42.284 49.6303 41.8705 49.6353 41.8735C49.6405 41.8767 49.9952 42.2906 50.4168 42.7965L50.4128 42.794ZM53.4449 45.8598C53.0774 46.173 50.6837 48.2493 48.1225 50.4705C45.5611 52.6915 41.4986 56.2027 39.1037 58.275C36.709 60.3471 34.7235 62.0527 34.6931 62.062C34.6309 62.0801 39.3614 49.0102 39.4441 48.9468C39.5268 48.8835 54.0932 45.2257 54.1044 45.2588C53.8981 45.4731 53.6807 45.6765 53.4535 45.8686L53.4449 45.8598ZM31.2161 39.6872C32.486 41.1779 34.738 43.8337 36.2284 45.5859C37.7187 47.3381 38.9446 48.8002 38.9441 48.8297C38.9435 48.8592 38.6967 49.5852 38.3874 50.4447C37.7434 52.2076 34.5063 61.1651 34.308 61.7171L34.1753 62.0799L33.6624 59.8918C32.6406 55.5845 28.1323 36.1651 28.141 36.1195C28.288 36.2355 28.4185 36.3711 28.529 36.5223C28.7378 36.7712 29.9447 38.1901 31.2161 39.6872Z" fill="#8FFFE2"/>
</g>
</svg>
