<svg width="266" height="266" viewBox="0 0 266 266" fill="none" xmlns="http://www.w3.org/2000/svg">
<g id="10 1" style="mix-blend-mode:difference">
<path id="Vector" d="M166.992 68.5318C151.197 76.0729 133.34 84.5619 127.301 87.454C121.263 90.3462 116.049 92.7993 115.688 92.9238C115.217 93.1038 114.76 93.3198 114.321 93.5697C113.73 93.9464 111.636 94.9272 105.043 98.0371C104.397 98.3533 103.424 98.8132 102.884 99.0719C102.399 99.3138 101.889 99.4988 101.362 99.6232C101.08 99.6599 94.6863 100.112 87.1787 100.649C79.6711 101.186 73.2263 101.63 72.8299 101.666C72.0363 101.751 72.906 100.239 65.4054 114.582C62.7065 119.728 57.5674 129.567 53.9476 136.436L47.4417 148.957L45.761 173.822L46.1291 174.21C46.3117 174.432 59.4467 183.201 75.2979 193.682C100.404 210.306 104.202 212.751 104.729 212.745C105.065 212.763 124.187 210.907 147.213 208.639C181.351 205.285 189.175 204.489 189.549 204.245C189.922 204 193.821 196.935 202.63 180.792L215.3 157.646L215.474 154.39C215.569 152.595 215.744 146.969 215.911 141.895L216.176 132.645L215.738 132.289C215.503 132.081 209.894 128.32 203.284 123.925L191.269 115.924L193.228 79.1945L204.954 73.748L205.364 67.3471C205.76 61.9517 205.8 60.8901 205.606 60.5634C205.349 60.13 196.519 54.9038 196.012 54.8768C195.871 54.8405 182.797 61.0086 166.992 68.5318ZM199.764 58.6131C201.86 59.8174 203.561 60.8454 203.558 60.897C203.556 60.9485 195.47 64.8241 185.613 69.525L167.69 78.0623L163.639 76.0637C161.412 74.9559 159.552 74.0114 159.487 73.9391C159.423 73.8667 195.503 56.4769 195.906 56.4293C195.965 56.4152 197.7 57.4278 199.775 58.6137L199.764 58.6131ZM203.967 67.3933C203.766 70.1886 203.6 72.5487 203.564 72.5986C203.527 72.6483 200.894 73.9741 197.693 75.4651L191.829 78.1826L189.663 115.471L184.304 117.991C181.371 119.37 178.904 120.474 178.872 120.456C178.838 120.436 179.301 112.394 179.942 102.647C180.824 88.7736 181.014 84.8794 180.867 84.6588C180.686 84.4802 180.448 84.3734 180.196 84.3586C177.99 85.1594 175.827 86.0746 173.715 87.1007L167.689 89.8555L167.675 87.8768C167.682 86.7789 167.719 84.4866 167.777 82.7647L167.888 79.6081L185.988 70.9711C195.961 66.2302 204.14 62.3367 204.174 62.3385C204.207 62.3403 204.161 64.6148 203.978 67.3938L203.967 67.3933ZM161.728 76.7553C163.9 77.8257 165.715 78.7504 165.781 78.8058C165.847 78.8609 162.996 80.3017 159.47 81.9824C155.944 83.663 151.415 85.8078 149.439 86.743L134.418 93.9228L133.338 93.3707C132.743 93.0572 130.858 92.1575 129.146 91.3646C128.07 90.908 127.027 90.3798 126.022 89.7835C126.031 89.623 157.434 74.692 157.624 74.7941C157.738 74.7945 159.587 75.7096 161.737 76.7845L161.728 76.7553ZM166.291 83.387C166.272 85.0304 166.219 87.3047 166.174 88.4637L166.062 90.5622L155.459 95.4247C149.6 98.0792 144.687 100.359 144.503 100.487C144.211 100.701 144.176 101.044 144.03 105.062C143.871 109.325 143.892 109.361 144.273 109.72C144.467 109.909 144.725 110.017 144.995 110.023C145.279 109.947 158.392 103.677 159.853 102.887L160.442 102.585L160.505 102.996C160.527 103.227 160.564 104.903 160.567 106.754C160.572 108.606 160.608 110.592 160.628 111.174L160.68 112.252L152.522 115.968C148.061 118.03 144.206 119.883 143.986 120.049C143.641 120.296 143.556 120.601 143.368 122.081C143.249 123.046 143.001 126.719 142.814 130.222C142.627 133.725 142.4 136.904 142.312 137.273L142.156 137.949L137.113 140.314C134.346 141.593 132.002 142.652 131.932 142.665C131.864 142.679 133.238 117.216 134.205 103.06L134.717 95.4051L150.423 87.9167C159.049 83.7769 166.163 80.4419 166.214 80.4274C166.325 81.4098 166.355 82.4001 166.302 83.3876L166.291 83.387ZM178.759 99.4102C178.298 106.659 177.808 114.235 177.629 116.295L177.323 120.016L173.701 117.811C171.712 116.612 169.964 115.513 169.827 115.384C169.691 115.257 169.663 113.858 170.063 106.692C170.31 102.047 170.681 96.3746 170.874 94.0446L171.206 89.8649L175.162 88.0634C177.336 87.0695 179.225 86.2675 179.346 86.274C179.465 86.2803 179.415 88.9399 178.77 99.4108L178.759 99.4102ZM168.01 115.27C167.957 115.295 167.912 115.333 167.879 115.38C167.847 115.428 167.827 115.484 167.823 115.542C167.812 115.754 144.933 126.604 144.575 126.585C144.415 126.576 144.401 126.523 144.533 126.404C144.683 126.057 144.728 125.673 144.661 125.301C144.643 124.448 144.689 123.595 144.797 122.749L144.985 121.138L153.193 117.338C157.691 115.232 161.527 113.407 161.714 113.238C162.096 112.942 162.14 112.111 162.021 106.51C161.994 105.295 161.969 103.529 161.968 102.591C161.983 101.921 161.912 101.253 161.753 100.602C160.589 99.9791 159.374 99.4602 158.119 99.051C156.903 98.6439 155.708 98.1732 154.541 97.6412C154.459 97.5678 156.783 96.4383 159.678 95.1264L167.196 91.7152L169.447 90.6852L168.845 102.935C168.405 111.065 168.148 115.237 168.021 115.271L168.01 115.27ZM123.132 93.9016C123.082 94.6847 122.976 95.4632 122.813 96.2306C121.845 95.9402 120.908 95.5531 120.016 95.0752C117.533 93.9193 117.361 93.8238 117.76 93.6323C117.978 93.5175 119.309 92.9042 120.694 92.2364C122.8 91.2332 123.231 91.0837 123.268 91.3501C123.323 91.5083 123.244 92.6542 123.144 93.9022L123.132 93.9016ZM128.877 92.8684C130.929 93.8402 132.607 94.6543 132.604 94.7058C132.601 94.7574 131.121 95.4892 129.32 96.3477L126.058 97.8987L125.188 97.4843L124.312 97.081L124.517 94.3032C124.717 91.5251 124.773 91.1085 125.019 91.1216C125.098 91.1315 126.829 91.908 128.888 92.8574L128.877 92.8684ZM119.848 96.6188C122.141 97.6955 123.983 98.639 123.96 98.7471C123.916 98.9401 113.903 103.771 113.55 103.752C113.196 103.733 105.775 99.4331 105.941 99.3212C106.107 99.2094 115.439 94.7102 115.576 94.7003C115.714 94.6905 117.56 95.5652 119.86 96.6194L119.848 96.6188ZM132.811 102.606C132.143 112.225 130.849 133.511 130.616 138.53C130.422 142.153 130.378 142.985 130.171 142.882C129.965 142.779 128.576 141.917 126.894 140.872L123.832 138.984L124.02 135.464C124.123 133.532 124.596 124.662 125.128 115.76L126.027 99.5473L129.411 97.9453C131.265 97.061 132.883 96.3307 133.009 96.3202C133.136 96.3098 133.169 97.5075 132.823 102.607L132.811 102.606ZM152.861 98.5924C153.998 99.1202 155.162 99.5891 156.348 99.9974C159.55 101.174 159.667 101.232 159.254 101.475C157.587 102.392 145.526 108.103 145.439 108.012C145.37 106.907 145.372 105.799 145.445 104.694L145.565 101.486L148.946 99.9418C150.797 99.109 152.414 98.4017 152.516 98.4072C152.65 98.4336 152.773 98.498 152.872 98.5929L152.861 98.5924ZM123.045 127.477L121.858 147.378L117.198 149.527C114.64 150.736 112.508 151.697 112.382 151.691C112.257 151.684 109.381 148.035 107.779 145.799C107.369 145.241 106.963 144.691 106.86 144.6C106.756 144.508 104.349 141.396 101.51 137.696C98.671 133.997 96.2175 130.9 95.9941 130.801C95.894 130.729 95.7737 130.692 95.651 130.695C95.5282 130.698 95.4097 130.74 95.3129 130.816C95.0563 131.016 94.9328 132.688 94.1984 145.707L93.3632 160.4L88.5403 162.701C86.9406 163.524 85.2962 164.255 83.6147 164.894C83.5605 164.839 84.0486 154.4 84.7257 141.706L85.9564 118.633L90.0637 116.667C92.3342 115.587 94.2399 114.699 94.2902 114.719C94.3406 114.739 98.2113 119.569 102.864 125.486C107.518 131.404 111.437 136.294 111.553 136.363C111.746 136.413 111.95 136.392 112.128 136.301C112.509 136.133 112.548 135.392 113.507 112.162L113.795 105.364L119.146 102.809L124.496 100.271L124.353 103.914C124.291 105.946 123.691 116.54 123.056 127.483L123.045 127.477ZM103.62 104.562L103.348 108.711L100.554 110.062C99.0225 110.791 97.034 111.732 96.2122 112.131L94.6798 112.883L91.0857 110.587C89.1113 109.331 87.4884 108.244 87.4911 108.193C87.4939 108.141 103.342 100.459 103.663 100.43C103.842 100.411 103.829 101.296 103.62 104.562ZM111.851 104.61C111.9 104.67 105.129 107.891 104.987 107.884C104.95 106.708 104.979 105.531 105.072 104.358L105.26 100.837L108.544 102.738L111.851 104.61ZM98.349 101.228C98.313 101.26 93.3428 103.646 87.2956 106.497C81.2484 109.349 76.2052 111.817 76.0502 111.935C75.7937 112.134 75.6899 112.796 75.3945 116.402C75.044 120.616 75.0251 120.649 74.5095 121.415C74.2238 121.843 72.8219 124.114 71.415 126.476L68.8371 130.749L68.805 129.851C68.7549 128.859 68.4847 128.35 68.0115 128.325C67.5383 128.3 67.3807 128.573 66.8857 130.03C65.4154 134.224 64.3092 135.453 61.2131 136.363C60.0863 136.693 58.3748 136.833 57.8085 136.624C57.1519 136.393 56.6664 136.598 56.6377 137.137C56.6089 137.676 57.1931 138.512 57.6151 138.535C58.2351 138.646 58.8478 138.796 59.4496 138.983C62.0053 139.735 64.2648 141.54 65.0209 143.444C65.5794 144.87 65.5991 145.469 65.0961 146.322C64.8543 146.739 64.7211 147.211 64.7085 147.693C64.7291 148.27 64.8296 148.424 66.1604 149.415C68.9432 151.484 70.4862 152.573 71.7743 153.401L73.1015 154.247L72.7956 157.623C72.5544 160.537 72.5436 161.061 72.7687 161.451C73.0721 161.98 81.8271 167.001 82.5055 167.037C83.6436 166.721 84.7483 166.295 85.804 165.764L88.6112 164.482L108.831 177.963L128.746 176.149L165.923 172.728C179.029 171.542 183.404 171.085 184.036 170.819L184.877 170.496L187.728 164.731C189.321 161.555 192.344 155.467 194.452 151.22C201.426 137.218 201.823 136.417 201.84 136.09C201.877 135.402 203.029 136.205 187.836 126.482C183.881 123.971 180.649 121.861 180.651 121.81C180.654 121.758 182.743 120.771 185.297 119.602C187.853 118.433 190.047 117.383 190.214 117.254C190.382 117.125 192.032 118.035 202.644 125.099L214.758 133.174L212.808 136.813C211.742 138.821 209.068 143.812 206.865 147.915C204.662 152.018 201.1 158.659 198.953 162.674L192.6 174.6C190.593 178.357 190.035 179.246 189.698 179.355C189.466 179.412 180.83 180.113 170.5 180.925C160.171 181.736 141.892 183.194 129.873 184.156C117.855 185.12 107.733 185.891 107.402 185.891C106.911 185.864 105.724 185.18 101.189 182.31C98.1143 180.347 92.3791 176.705 88.4701 174.203C84.5611 171.7 77.6694 167.336 73.1674 164.48C68.6655 161.623 61.4044 157.005 57.0086 154.194C52.6128 151.383 48.9803 149.056 48.9849 148.971C48.9895 148.884 51.4379 144.145 63.4511 121.205C66.6295 115.216 70.0006 108.72 70.996 106.784C71.9912 104.847 72.9027 103.194 73.0157 103.114C73.1285 103.034 78.6837 102.548 85.3944 102.049C97.3219 101.19 98.5383 101.111 98.349 101.228ZM112.125 110.944C111.929 117.627 111.136 133.465 111.013 133.408C110.89 133.349 109.349 131.375 107.426 128.944L103.96 124.562L104.755 109.654L108.411 107.905C110.406 106.937 112.101 106.142 112.153 106.144C112.245 107.741 112.248 109.343 112.16 110.94L112.125 110.944ZM89.4159 111.233C91.3674 112.488 92.9635 113.544 92.9607 113.596C92.958 113.648 91.2433 114.494 89.1553 115.475L85.3536 117.284L84.2439 116.65C80.0719 114.254 77.7275 112.755 77.9632 112.624C80.0542 111.585 85.5895 109.005 85.7206 109.012C85.8517 109.019 87.4974 110.004 89.4501 111.235L89.4159 111.233ZM102.978 116.603C102.798 119.98 102.65 122.761 102.598 122.758C102.547 122.755 95.8698 114.263 95.8102 114.093C96.8574 113.464 97.9434 112.904 99.0617 112.415C100.88 111.557 102.518 110.765 102.718 110.649C102.864 110.543 103.029 110.468 103.205 110.428C103.288 110.467 103.194 113.205 103.012 116.605L102.978 116.603ZM173.117 119.194C175.333 120.549 177.109 121.667 177.072 121.705C177.036 121.743 169.566 125.226 160.46 129.444L143.921 137.124L144.09 132.877C144.109 131.401 144.229 129.929 144.451 128.469C144.578 128.35 168.906 116.796 169.09 116.771C169.119 116.773 170.936 117.876 173.151 119.213L173.117 119.194ZM79.9773 115.813L83.3025 117.79C83.6789 117.974 84.0102 118.239 84.2732 118.566C84.4026 118.821 82.1713 165.265 82.0287 165.257C81.7151 165.24 74.2586 160.853 74.1844 160.636C74.1102 160.419 74.372 155.511 74.7378 149.62L75.3943 138.919L76.1798 138.663C77.6277 138.21 77.6947 137.276 76.3033 137.099L75.5876 137.01L76.0463 128.409C76.577 118.461 76.9578 113.892 77.225 114.137C77.3387 114.258 78.5809 114.98 79.9773 115.813ZM189.995 129.415C195.596 132.997 200.245 135.999 200.315 136.072C200.461 136.235 197.842 141.587 197.596 141.591C197.511 141.586 194.561 139.664 191.067 137.309C187.573 134.955 182.236 131.347 179.211 129.317C176.185 127.287 173.604 125.505 173.485 125.389C173.366 125.274 173.825 124.895 176.188 123.808C178.667 122.67 179.186 122.485 179.474 122.655L189.995 129.415ZM184.264 134.284C191.074 138.885 196.745 142.753 196.859 142.863C196.974 142.972 196.376 144.43 194.353 148.478C192.857 151.452 189.872 157.439 187.746 161.714C185.619 165.987 183.815 169.589 183.743 169.66C183.67 169.731 167.803 171.241 118.388 175.77L109.194 176.625L102.927 172.444C91.4691 164.823 90.0953 163.888 90.2397 163.752C90.5161 163.502 108.942 154.974 115.933 151.898C119.688 150.224 122.966 148.69 123.221 148.508C124.079 147.864 130.445 145.047 131.006 145.042C131.375 145.062 133.57 144.029 137.247 142.195C140.366 140.637 143.122 139.226 143.382 139.073C144.049 138.682 171.529 125.923 171.689 125.932C171.849 125.94 177.453 129.677 184.264 134.279L184.264 134.284ZM74.3598 129.262C73.6718 130.249 73.044 131.278 72.4802 132.341L70.8552 135.256L70.3273 134.434C70.0364 133.987 69.7804 133.518 69.5617 133.031C69.3275 132.49 69.33 132.443 69.73 131.803C69.9596 131.465 71.2124 129.416 72.4997 127.259L74.8366 123.325L74.735 126.194C74.6442 128.541 74.5619 129.117 74.3598 129.262ZM214.441 146.635L214.097 157.03L190.02 201.09L190.443 190.808L190.888 180.522L201.316 161.045C207.068 150.324 212.233 140.658 212.815 139.579C213.399 138.501 214.083 137.266 214.259 136.85C214.436 136.434 214.669 136.131 214.702 136.167C214.734 136.203 214.644 140.913 214.441 146.635ZM74.1412 136.362L74.0022 136.931L73.0246 136.499C72.4649 136.273 72.0302 136.061 71.9969 136.041C72.3398 135.296 72.7297 134.574 73.1644 133.879L74.3871 131.753L74.3304 133.779C74.3208 134.643 74.2576 135.506 74.1412 136.362ZM100.989 139.422C103.384 142.551 105.348 145.18 105.343 145.266C105.557 145.735 105.878 146.146 106.28 146.466C107.628 148.023 108.878 149.665 110.02 151.38C109.578 151.248 109.152 151.064 108.751 150.835C108.2 150.543 107.626 150.295 107.035 150.094C106.658 149.982 106.021 149.385 104.856 148.069C103.979 147.05 101.616 144.493 99.647 142.392L96.0592 138.584L96.1935 136.067C96.2724 134.587 96.3772 133.587 96.4657 133.644C96.5542 133.7 98.5943 136.293 100.989 139.422ZM69.667 135.986C70.2289 136.649 70.923 137.185 71.7043 137.561L72.8204 138.075L71.9453 138.402C70.924 138.79 67.4807 141.814 67.0621 142.695C66.9786 142.907 66.8494 143.096 66.6836 143.251C66.6095 143.247 66.4364 142.955 66.2953 142.597C65.7389 141.239 64.105 139.605 62.0976 138.434C61.5432 138.106 61.1801 137.839 61.2999 137.845C61.8327 137.735 62.353 137.57 62.8528 137.353C63.9081 136.94 64.8654 136.308 65.6621 135.499C66.459 134.69 67.0775 133.72 67.4775 132.655C67.5762 132.413 67.7398 132.669 68.1622 133.646C68.557 134.49 69.0631 135.278 69.667 135.986ZM126.783 142.528C128.071 143.339 129.105 143.992 129.069 144.024C129.034 144.057 123.492 146.642 123.418 146.638C123.344 146.634 123.422 145.276 123.51 143.642L123.67 140.631L124.064 140.865C124.246 140.979 125.486 141.734 126.783 142.528ZM73.5407 146.014C73.3474 149.637 73.1145 152.61 73.046 152.606C72.8864 152.597 71.5014 151.655 68.4724 149.486C67.2051 148.591 66.7685 148.199 66.8358 148.008C66.9803 147.613 67.0846 147.204 67.1468 146.788C67.4173 144.674 68.489 142.745 70.1385 141.405C71.3399 140.319 72.9867 139.355 73.6775 139.374C73.8359 139.406 73.8171 140.83 73.541 146.008L73.5407 146.014ZM101.623 146.937C101.42 147.104 95.7134 149.783 95.5766 149.776C95.53 148.245 95.5698 146.711 95.6958 145.183L95.9405 140.596L98.8445 143.718C100.459 145.391 101.697 146.837 101.631 146.903L101.623 146.937ZM106.464 151.593C106.868 151.615 109.679 152.84 109.671 152.995C109.668 153.052 106.412 154.604 102.414 156.438L95.1785 159.813L95.1726 157.995C95.151 157.004 95.1982 155.156 95.2486 153.888L95.3709 151.594L99.1016 149.832L102.825 148.088L104.447 149.836C105.5 150.904 106.237 151.547 106.465 151.559L106.464 151.593ZM59.37 157.304L83.1823 172.466L101.096 183.835C103.624 185.43 105.779 186.839 105.892 186.966C106.093 187.171 105.937 189.118 104.919 198.989C104.242 205.462 103.639 210.76 103.554 210.755C103.468 210.751 96.9211 206.468 72.2407 190.11C66.7192 186.429 58.8317 181.224 54.7771 178.558C50.7223 175.892 47.3391 173.608 47.2689 173.53C47.0208 173.251 48.4901 150.635 48.7353 150.648C48.8293 150.6 53.5976 153.609 59.3718 157.27L59.37 157.304ZM189.382 186.359C189.283 189.499 189.07 194.571 188.906 197.632L188.608 203.228L188.216 203.294C187.238 203.495 105.05 211.438 104.98 211.36C104.91 211.281 107.31 187.398 107.408 187.277C107.506 187.155 188.496 180.676 189.197 180.714C189.598 180.701 189.594 180.769 189.382 186.359Z" fill="#8FFFE2"/>
<path id="Vector_2" d="M152.574 53.802C152.339 54.3125 152.157 54.8463 152.032 55.3945C151.508 57.3791 151.141 57.923 150.082 58.3956C149.391 58.7123 148.626 58.825 147.875 58.7206C146.352 58.6394 146.119 58.7304 146.082 59.4185C146.045 60.1065 146.442 60.4957 147.32 60.5425C148.548 60.6146 149.71 61.1274 150.593 61.9878C151.049 62.3893 151.405 62.892 151.634 63.4561C151.864 64.0203 151.958 64.6303 151.913 65.2379C151.871 66.0292 151.939 66.3492 152.204 66.6449C152.468 66.9408 152.59 67.0047 152.915 66.8093C153.24 66.6139 153.406 66.1801 153.694 65.0684C153.884 64.2813 154.178 63.5234 154.569 62.8151C155.16 61.9094 156.58 61.0306 158.164 60.6034C158.632 60.5216 159.076 60.3283 159.458 60.0398C159.574 59.7643 159.348 59.0796 159.121 59.0502L157.515 58.93C156.274 58.8294 155.947 58.7372 155.474 58.3784C154.817 57.8489 154.218 56.5461 153.962 55.1008C153.897 54.6777 153.797 54.2608 153.663 53.8543C153.495 53.5694 152.799 53.5495 152.574 53.802ZM153.594 58.3701C153.871 58.8602 154.25 59.2844 154.705 59.6139C154.945 59.733 155.16 59.8944 155.344 60.0906C155.187 60.261 155.002 60.4011 154.795 60.5042C154.125 60.9964 153.546 61.6041 153.086 62.299C153.048 62.4004 152.559 62.0064 151.992 61.3954C151.596 60.9259 151.162 60.4911 150.694 60.0957C150.391 59.9013 150.409 59.8677 151.035 59.6021C151.803 59.2791 152.42 58.6748 152.761 57.9117C152.824 57.6851 152.938 57.4956 153.01 57.5167C153.247 57.7696 153.443 58.0573 153.594 58.3701Z" fill="#8FFFE2"/>
<path id="Vector_3" d="M142.027 60.703C141.754 60.8667 141.575 61.2539 141.38 62.1002C140.966 63.8606 140.163 65.8476 139.556 66.6029C139.138 67.0803 138.668 67.5103 138.156 67.8853C136.973 68.7986 135.504 69.253 134.016 69.1652C132.346 69.1854 132.3 69.1829 132.133 69.6398C131.866 70.35 132.118 70.559 134.053 71.1739C138.191 72.4699 140.191 74.5545 140.583 78.0197C140.74 79.3506 141.016 79.7678 141.648 79.468C141.901 79.3435 142.084 78.9163 142.36 77.7062C142.834 75.6846 143.395 74.7255 144.735 73.5952C146.142 72.5437 147.736 71.7719 149.431 71.3213C150.141 71.2039 150.456 70.8643 150.348 70.3124C150.24 69.7603 149.857 69.6536 148.581 69.5855C146.459 69.4724 144.388 67.8784 143.432 65.654C142.923 64.4768 142.919 64.5514 143.016 61.0317C143.029 60.6702 142.422 60.4595 142.027 60.703ZM143.717 68.7914C144.276 69.3634 144.911 69.854 145.605 70.2491L146.58 70.7438L145.515 71.3195C144.149 72.041 142.976 73.0805 142.094 74.3513L141.52 75.235L141.056 74.4167C140.273 73.0731 139.148 71.9648 137.795 71.2067L136.487 70.4355L137.277 70.0866C139.112 69.2473 141.235 67.2962 141.613 66.0974C141.724 65.7354 141.79 65.7905 142.265 66.7532C142.661 67.4914 143.149 68.1761 143.717 68.7914Z" fill="#8FFFE2"/>
</g>
</svg>
