<svg width="162" height="162" viewBox="0 0 162 162" fill="none" xmlns="http://www.w3.org/2000/svg">
<g id="05" style="mix-blend-mode:difference">
<path id="Vector" d="M66.7463 32.1716C65.6116 34.3568 64.0435 39.1403 63.279 42.7686C62.9699 44.2229 62.5278 47.3102 62.4029 48.8992C62.0417 52.5671 62.1353 56.2664 62.6817 59.9127C62.937 61.8111 63.3267 63.6891 63.8477 65.5325C64.4029 67.6798 64.5918 68.2405 66.1296 72.2628L66.9226 74.3938L66.7689 74.7264C66.6825 74.9076 66.4477 75.5727 66.2417 76.2052C65.2494 79.2179 64.6581 82.3492 64.4833 85.5185C64.3687 87.3719 64.3714 87.5378 64.5753 87.705C64.7179 87.8034 64.8248 87.7898 65.4395 87.6028C65.8251 87.4741 66.5357 87.2112 67.0198 86.9918C67.3148 86.8535 67.6186 86.735 67.9291 86.6368C67.9524 86.9921 67.9508 87.3489 67.9244 87.7045C67.8739 89.8659 67.9647 92.0285 68.1966 94.1787C68.5355 97.33 69.0782 100.456 69.8214 103.537L70.4722 106.136C70.4722 106.136 72.123 103.854 73.8506 100.241C75.3322 97.3243 76.7256 94.582 76.9802 94.1302L77.413 93.3109L77.3484 94.3266C77.2217 97.281 77.3374 100.241 77.6943 103.177C78.2299 106.293 78.9628 109.372 79.8884 112.396C80.766 115.243 81.5121 117.078 82.5246 118.913C82.816 119.444 83.0595 119.905 83.0688 119.938C83.0781 119.97 82.8857 120.084 82.6468 120.181C81.0501 120.831 79.423 122.845 79.1344 124.575C79.0325 125.16 79.1221 126.194 79.3082 126.384C79.5716 126.697 79.9758 126.296 79.8483 125.853C79.7608 125.237 79.8174 124.61 80.0138 124.02C80.5252 122.772 81.4137 121.717 82.5544 121.003C83.2659 120.611 83.5055 120.601 83.7392 120.992C83.9069 121.274 85.0856 123.096 85.2254 123.282C85.2553 123.325 85.1355 123.475 84.9506 123.614C84.6639 123.866 84.4278 124.169 84.2554 124.509C83.9749 124.976 83.8036 125.5 83.7544 126.043C83.571 126.946 83.6023 127.88 83.8456 128.769C84.0393 129.599 84.0504 129.637 84.2458 129.679C84.3018 129.696 84.3613 129.697 84.4184 129.684C84.4753 129.671 84.5277 129.643 84.5703 129.602C84.6702 129.504 84.6579 129.341 84.5241 128.719C84.3199 127.893 84.2968 127.032 84.4563 126.195C84.6526 124.951 85.0301 124.349 85.9431 123.85C86.5812 123.504 87.1019 123.423 88.1947 123.526C89.025 123.628 89.8206 123.921 90.519 124.383C90.9667 124.733 91.4093 125.43 91.7475 126.364L92.0331 127.178L91.87 127.538C91.7706 127.701 91.7156 127.888 91.7096 128.08C91.7043 128.272 91.7482 128.462 91.8381 128.631C92.0705 129.259 92.5664 129.117 92.4775 128.447C92.405 127.954 92.4692 127.754 92.9409 127.202C93.8698 126.073 95.0858 125.664 96.4132 126.03C97.2917 126.303 98.1165 126.727 98.8512 127.281C99.3581 127.681 99.5707 127.734 99.707 127.487C99.8437 127.239 99.7271 127.099 99.4099 126.815C98.8371 126.367 98.212 125.99 97.5494 125.693L97.1189 125.521L97.2821 125.04C98.0228 122.974 99.0572 121.577 100.386 120.85C101.673 120.149 102.529 120.112 104.444 120.691C105.183 120.894 105.872 121.245 106.473 121.723C106.875 122.066 107.199 122.494 107.422 122.975C107.433 123.029 107.457 123.08 107.492 123.124C107.526 123.167 107.571 123.201 107.621 123.224C107.672 123.247 107.727 123.258 107.782 123.254C107.837 123.252 107.891 123.236 107.939 123.208C108.099 123.138 108.106 123.102 107.958 122.612C107.758 121.916 107.143 121.259 106.193 120.688C105.107 120.044 103.199 119.516 102.168 119.58L101.677 119.606L101.651 119.312C101.63 119.144 101.589 118.374 101.557 117.602C101.526 116.829 101.473 116.104 101.477 115.999C101.482 115.893 101.543 115.781 101.897 115.627C103.11 115.112 104.747 115.277 106.155 116.053C106.913 116.475 107.543 117.095 107.98 117.846C108.127 118.088 108.296 118.315 108.487 118.523C108.529 118.554 108.579 118.573 108.632 118.578C108.683 118.583 108.736 118.573 108.783 118.551C108.83 118.528 108.871 118.494 108.9 118.45C108.93 118.407 108.946 118.356 108.95 118.304C108.988 118.015 108.354 117.016 107.688 116.325C106.858 115.452 105.224 114.73 103.824 114.622C103.315 114.593 102.805 114.652 102.316 114.795L101.393 115.019L101.369 114.755C101.304 114.106 100.823 110.868 100.649 109.903C100.048 107.262 99.2861 104.661 98.3671 102.113C97.2043 99.0988 95.8223 96.1742 94.2327 93.3615C93.3991 92.0227 92.4807 90.7387 91.4819 89.518C91.4066 89.4353 91.3704 89.3693 91.3863 89.3648C91.4022 89.3602 93.8695 90.8706 96.8589 92.7386C99.8482 94.606 103.099 96.3968 103.099 96.3968C103.099 96.3968 103.091 94.2644 100.37 88.5672C98.4871 84.6254 96.2906 80.842 93.8014 77.2534C93.6134 77.0154 93.4473 76.761 93.3058 76.4924C93.5252 76.4433 93.7484 76.4141 93.9729 76.4049C94.3135 76.3833 95.0974 76.2794 95.7029 76.1924C97.1957 75.9648 97.1732 76.0305 96.2646 74.2938C95.3567 72.5571 93.1878 69.6995 91.9048 68.5502L91.598 68.2909L91.2711 66.7694C91.0491 65.7561 90.6588 64.3396 90.0835 62.4587C88.6064 57.6476 87.317 54.346 85.448 50.6413C84.2375 48.2377 83.7617 47.4261 81.8023 44.4318C80.5419 42.5185 77.6536 39.1834 75.12 36.7191C73.2606 34.9595 71.2498 33.3682 69.1108 31.9641C68.4727 31.5396 67.6282 31.1918 67.4043 31.2562C67.2642 31.2514 67.0267 31.6289 66.7463 32.1716ZM68.1622 32.1814C68.5678 32.3878 71.2906 34.3044 72.112 34.968C73.7875 36.356 75.3599 37.8651 76.8154 39.4836C78.3308 41.0956 79.7459 42.7992 81.0534 44.5846L81.5276 45.3064L81.3755 45.6802C80.9743 46.4931 80.4835 47.2578 79.9111 47.9602C78.9013 49.2651 77.0557 50.6645 74.8503 51.8477C73.4386 52.5211 71.9253 52.9563 70.3716 53.1358C67.8895 53.3805 65.3343 52.9863 63.6152 52.0909L62.9315 51.7247L63.0031 50.4082C63.1576 47.9166 63.477 45.4384 63.9591 42.9898C64.5795 40.1454 65.3992 37.3485 66.4114 34.6201C66.9028 33.3774 67.5528 32.0069 67.6809 31.9701C67.8445 32.0101 68.015 32.0986 68.1622 32.1814ZM81.9536 46.0421C83.1704 47.8636 85.7915 52.714 86.9628 55.6187C88.4985 59.4475 89.7469 63.3855 90.6972 67.4C91.5197 71.1625 91.6428 71.7698 91.7605 72.5177C91.9165 73.4803 92.1071 74.9264 92.0941 74.9652C92.0809 75.0033 91.336 74.099 90.4337 73.0104C88.8458 71.0688 87.156 69.2132 85.3717 67.4515C84.6468 66.774 84.3814 66.694 84.1765 67.0656C84.0947 67.2281 84.1111 67.345 84.3531 68.005C85.1246 69.9906 85.7436 72.0323 86.2032 74.1125C87.3413 78.9968 87.5106 80.3931 87.4579 84.4976C87.4434 85.9162 87.4663 86.719 87.5373 86.8201C87.6856 86.9817 87.8569 87.1195 88.0465 87.2298C88.198 87.3097 88.3411 87.4047 88.4742 87.5134C87.8701 88.0148 87.2238 88.4622 86.542 88.8504C85.167 89.6779 83.6468 90.2328 82.0628 90.486C80.7776 90.6546 80.1015 90.6753 79.4147 90.5528C78.7286 90.4307 78.7591 90.5606 79.401 89.2994C79.8419 88.4256 79.8954 88.6113 78.67 86.7578C77.2833 84.6827 75.1248 80.7903 74.4739 79.1533C73.4889 76.8025 72.7714 74.348 72.335 71.8366C72.1193 70.6409 72.1073 70.5992 71.937 70.537C71.6161 70.4208 71.4565 70.5883 71.1068 71.3838L70.77 72.1755L70.5854 71.7144C69.8745 69.9497 69.2582 68.1484 68.739 66.3181C68.3772 65.0601 68.0799 63.9297 68.0841 63.7999C68.0761 63.5312 68.4959 63.1846 69.5335 62.6013C70.4848 62.0671 70.4712 62.1405 69.9551 60.5865C69.4101 58.8448 68.9858 57.0677 68.6851 55.2677C68.5556 54.5406 68.4052 53.9323 68.4052 53.9323C68.4052 53.9323 68.8324 53.912 69.2783 53.8984C71.3079 53.8163 73.3008 53.3317 75.1408 52.4729C77.1229 51.4512 79.1314 49.9703 80.1733 48.7499C80.8135 47.9828 81.4735 46.919 81.9536 46.0421ZM62.9102 52.5542C63.3133 52.7357 64.3828 53.1929 64.8029 53.3302C65.7501 53.5878 67.6896 53.8897 67.6896 53.8897C67.6896 53.8897 67.8406 54.2702 67.9818 55.1225C68.3049 56.991 68.7325 58.8399 69.2628 60.6605L69.6087 61.7667L68.9351 62.1584C68.0218 62.6921 67.4601 63.208 67.3974 63.5561C67.3646 63.7671 67.4775 64.2801 67.8672 65.7315C68.4304 67.7838 69.1039 69.8042 69.8849 71.7838L70.3882 73.1122L70.2461 73.5457L69.7909 74.8892C69.6193 75.4006 69.3831 76.2051 69.2677 76.683C69.0976 77.3921 69.0426 77.526 68.9509 77.4238C68.7196 77.1255 66.8037 72.2704 65.6231 68.9723C64.1198 64.7301 63.226 60.296 62.9684 55.8034C62.8825 54.7225 62.8631 53.6374 62.9102 52.5542ZM72.0385 73.732C72.63 76.2163 73.4619 78.6369 74.5225 80.9604C75.1426 82.2372 77.1571 85.7612 77.9917 87.0012C78.4486 87.6868 78.8614 88.3392 78.9031 88.4488C78.9657 88.6045 78.2989 89.96 75.2201 96.0432C73.152 100.113 71.3178 103.719 71.1384 104.058L70.8148 104.68L70.4255 103.145C69.9476 101.267 69.8363 100.639 69.3622 97.4607C69.0232 95.4985 68.8006 93.5182 68.6956 91.5301C68.5588 89.1001 68.6071 86.6632 68.8403 84.2413C69.2769 79.3522 69.8437 76.566 70.9901 73.6513C71.2014 73.1216 71.4263 72.5426 71.4967 72.3661C71.5321 72.2578 71.5802 72.1542 71.64 72.0574C71.64 72.0574 71.8106 72.8074 72.0211 73.7197L72.0385 73.732ZM86.7566 69.8466C88.0256 71.2015 90.6813 74.3534 92.243 76.3502C96.0777 81.2544 99.8722 88.3419 102.05 94.5639L102.298 95.2738L102.005 95.0978C101.772 94.9462 89.9587 87.5935 88.3457 86.5845L88.135 86.4535L88.1692 84.4044C88.2124 81.196 88.083 79.6622 87.4894 76.7794C86.7344 73.0702 86.2231 71.1709 85.3896 68.8743C85.1013 68.0886 85.0784 68.0709 86.7382 69.8311L86.7566 69.8466ZM67.7754 76.4799C68.877 79.1059 68.8188 78.9037 68.5853 80.4161C68.482 81.1406 68.3073 82.5805 68.2004 83.6541C68.0934 84.7271 68.0106 85.6678 67.9907 85.7429C67.9709 85.8186 67.7152 85.9895 67.1962 86.2081C65.9151 86.7394 65.1481 87.023 65.1313 86.9648C65.0881 86.8144 65.3493 83.6399 65.4803 82.6745C65.725 80.9346 66.085 79.2131 66.5579 77.5214C66.9529 76.2092 67.2474 75.3427 67.2906 75.372C67.3336 75.4013 67.5054 75.8661 67.7571 76.4643L67.7754 76.4799ZM93.6757 71.6125C93.9693 72.0075 94.4281 72.6402 94.6846 73.0144C95.1994 73.78 96.064 75.3174 96.0211 75.4093C95.2066 75.5729 94.3807 75.6768 93.5507 75.7202C93.1949 75.7462 92.962 75.7196 92.9436 75.6556C92.925 75.5909 92.8341 75.0094 92.7407 74.3484C92.4644 72.423 92.3974 71.9489 92.2159 71.1742C92.1268 70.769 92.0245 70.232 91.9776 69.985L91.8994 69.5315L92.5139 70.2233C92.842 70.5945 93.36 71.2273 93.6757 71.6125ZM89.3978 88.0501C89.5556 88.1784 89.5396 88.218 89.1871 88.6426C88.2949 89.6799 87.2073 90.531 85.9866 91.1474C85.3251 91.4954 84.6222 91.7593 83.8952 91.9328C82.6158 92.3007 82.4813 92.3394 81.5042 92.3494C80.9465 92.366 80.3887 92.3355 79.8362 92.2596C79.1044 92.1227 78.2817 91.8273 78.2383 91.6763C78.2428 91.5515 78.2841 91.4309 78.3568 91.3298L78.4951 91.0883L79.1203 91.2146C80.4446 91.4834 81.6556 91.3711 83.6131 90.8082C84.2957 90.6176 84.9661 90.3866 85.6207 90.1162C86.6299 89.6364 87.5884 89.0553 88.4818 88.3829C88.6827 88.2055 88.9012 88.0491 89.1345 87.9178C89.1808 87.9216 89.293 87.9867 89.3754 88.0565L89.3978 88.0501ZM90.4207 89.3193C90.6634 89.5969 91.0085 89.9914 91.2037 90.2476C91.3985 90.5047 91.842 91.0821 92.1819 91.5405C93.3902 93.1177 94.4233 94.9401 95.892 98.0579C99.176 105.021 100.514 110.515 100.897 118.414C100.925 119.076 100.94 119.669 100.928 119.725C100.901 119.77 100.864 119.81 100.82 119.841C100.776 119.871 100.727 119.892 100.674 119.902C100.055 120.169 99.4783 120.528 98.9644 120.967C98.3324 121.557 97.8036 122.249 97.3997 123.015C96.9899 123.758 96.5112 125.008 96.5703 125.213C96.5842 125.262 96.3459 125.254 96.0468 125.2C95.4652 125.136 94.8762 125.197 94.32 125.378C93.7637 125.559 93.2518 125.856 92.8192 126.25C92.7426 126.333 92.6614 126.411 92.5747 126.484C92.4642 126.261 92.3687 126.031 92.29 125.795C92.149 125.42 91.9807 125.056 91.7865 124.706C90.857 123.257 88.4836 122.435 86.489 122.87C85.9135 123 85.8111 123.006 85.7761 122.884C85.577 122.51 85.3572 122.147 85.1175 121.798C84.3168 120.58 82.8802 118.077 82.4498 117.159C80.7346 113.483 78.9803 107.227 78.3565 102.625C78.0281 99.5287 77.9596 96.4102 78.152 93.3033L78.2159 92.5379L78.6923 92.6891C79.5995 92.9729 80.5482 93.0983 81.4974 93.0601C82.4717 93.0408 82.5885 93.0244 84.0724 92.5976C84.8303 92.4121 85.5677 92.151 86.2733 91.8189C87.4964 91.1802 88.5995 90.3342 89.5332 89.3174C89.656 89.1625 89.7922 89.019 89.9397 88.8881C90.1131 89.0107 90.2675 89.1584 90.3984 89.3257L90.4207 89.3193Z" fill="#8FFFE2"/>
<path id="Vector_2" d="M78.449 53.2575C77.7379 53.7254 77.1415 54.3482 76.7047 55.0795C74.1289 59.3711 76.4411 66.1343 80.7639 66.9062C81.4811 67.0284 82.2177 66.9655 82.9035 66.724C83.5898 66.4822 84.2029 66.0696 84.6857 65.5247C85.4848 64.6904 86.2176 62.9995 86.3863 61.5995C86.5582 59.914 86.3065 58.2114 85.6549 56.6468C85.2326 55.7315 84.6633 54.8917 83.9702 54.1608C83.2104 53.4901 82.3038 53.0081 81.3245 52.7536C80.3364 52.5744 79.3169 52.7531 78.449 53.2575ZM81.1072 53.4207C82.83 53.6896 84.4364 55.2775 85.2488 57.5003C85.8783 59.3219 85.8947 61.2993 85.2954 63.1292C85.0658 63.7512 84.8212 63.9848 83.9857 64.3919C83.6474 64.5782 83.2659 64.6723 82.8795 64.6649C81.4755 64.7212 80.3549 64.0637 79.3526 62.6252C78.7029 61.5519 78.3083 60.3435 78.1983 59.0936C78.0253 57.2601 78.499 55.4248 79.5362 53.9072C79.8192 53.5062 79.8665 53.4648 80.2416 53.4195C80.5288 53.3807 80.8203 53.381 81.1072 53.4207ZM78.27 54.6814C77.2842 56.6743 77.2125 59.4362 78.0825 61.6424C78.4722 62.7783 79.1924 63.7717 80.1498 64.4945C80.6121 64.8563 81.1469 65.1138 81.7172 65.2496C82.2881 65.3852 82.8805 65.3961 83.455 65.2811L84.0689 65.1636L83.7136 65.4568C82.118 66.7739 79.9067 66.4544 78.3139 64.675C77.3367 63.5912 76.692 62.2481 76.457 60.807C76.202 59.385 76.3056 57.9222 76.757 56.5514C77.0682 55.7705 77.5177 55.0526 78.0839 54.4326C78.2226 54.3001 78.3703 54.1764 78.5247 54.0627C78.5766 54.0373 78.4444 54.3255 78.27 54.6814Z" fill="#8FFFE2"/>
</g>
</svg>
