<svg width="20" height="20" viewBox="0 0 20 20" fill="none" xmlns="http://www.w3.org/2000/svg">
<g clip-path="url(#clip0_303_24282)">
<mask id="mask0_303_24282" style="mask-type:luminance" maskUnits="userSpaceOnUse" x="0" y="0" width="20" height="20">
<path d="M0 0H20V20H0V0Z" fill="white"/>
</mask>
<g mask="url(#mask0_303_24282)">
<path d="M12.5003 0.833496H3.33366C2.41699 0.833496 1.66699 1.5835 1.66699 2.50016V13.3335C1.66699 13.7918 2.04199 14.1668 2.50033 14.1668C2.95866 14.1668 3.33366 13.7918 3.33366 13.3335V3.3335C3.33366 2.87516 3.70866 2.50016 4.16699 2.50016H12.5003C12.9587 2.50016 13.3337 2.12516 13.3337 1.66683C13.3337 1.2085 12.9587 0.833496 12.5003 0.833496ZM15.8337 4.16683H6.66699C5.75033 4.16683 5.00033 4.91683 5.00033 5.8335V17.5002C5.00033 18.4168 5.75033 19.1668 6.66699 19.1668H15.8337C16.7503 19.1668 17.5003 18.4168 17.5003 17.5002V5.8335C17.5003 4.91683 16.7503 4.16683 15.8337 4.16683ZM15.0003 17.5002H7.50033C7.04199 17.5002 6.66699 17.1252 6.66699 16.6668V6.66683C6.66699 6.2085 7.04199 5.8335 7.50033 5.8335H15.0003C15.4587 5.8335 15.8337 6.2085 15.8337 6.66683V16.6668C15.8337 17.1252 15.4587 17.5002 15.0003 17.5002Z" fill="#69857B"/>
</g>
</g>
<defs>
<clipPath id="clip0_303_24282">
<rect width="20" height="20" fill="white"/>
</clipPath>
</defs>
</svg>
