<svg width="40" height="40" viewBox="0 0 40 40" fill="none" xmlns="http://www.w3.org/2000/svg">
<g clip-path="url(#clip0_207_14325)">
<path fill-rule="evenodd" clip-rule="evenodd" d="M40 20C40 31.0457 31.0457 40 20 40C8.9543 40 0 31.0457 0 20C0 8.9543 8.9543 0 20 0C31.0457 0 40 8.9543 40 20ZM13.3756 28.6298C18.1093 28.6298 21.9466 24.7661 21.9466 20C21.9466 15.2339 18.1093 11.3702 13.3757 11.3702C8.64203 11.3702 4.80469 15.2339 4.80469 20C4.80469 24.7661 8.64203 28.6298 13.3756 28.6298ZM27.0637 28.1234C29.4305 28.1234 31.3492 24.4865 31.3492 20C31.3492 15.5135 29.4305 11.8766 27.0637 11.8766C24.697 11.8766 22.7783 15.5135 22.7783 20C22.7783 24.4865 24.697 28.1234 27.0637 28.1234ZM33.688 27.2783C34.5205 27.2783 35.1953 24.0197 35.1953 20C35.1953 15.9803 34.5205 12.7217 33.688 12.7217C32.8555 12.7217 32.1809 15.9803 32.1809 20C32.1809 24.0197 32.8556 27.2783 33.688 27.2783Z" fill="#1CC287"/>
</g>
<defs>
<clipPath id="clip0_207_14325">
<rect width="40" height="40" fill="white"/>
</clipPath>
</defs>
</svg>
