<svg width="40" height="40" viewBox="0 0 40 40" fill="none" xmlns="http://www.w3.org/2000/svg">
<g clip-path="url(#clip0_207_14314)">
<path d="M17.2718 23.0156C17.2744 22.5751 17.1459 22.1439 16.9029 21.7766C16.6598 21.4093 16.313 21.1226 15.9065 20.9528C15.5001 20.7831 15.0524 20.738 14.6203 20.8233C14.1882 20.9086 13.7912 21.1205 13.4797 21.4319C13.1683 21.7434 12.9565 22.1404 12.8712 22.5725C12.7859 23.0046 12.831 23.4523 13.0008 23.8588C13.1706 24.2652 13.4573 24.612 13.8246 24.855C14.1919 25.0981 14.6232 25.2265 15.0637 25.2239C15.6486 25.2216 16.209 24.9883 16.6226 24.5746C17.0363 24.161 17.2696 23.6006 17.2718 23.0156Z" fill="#1CC287"/>
<path d="M20 0.46875C9.2132 0.46875 0.46875 9.2132 0.46875 20C0.46875 30.7868 9.2132 39.5312 20 39.5312C30.7868 39.5312 39.5312 30.7868 39.5312 20C39.5312 9.2132 30.7868 0.46875 20 0.46875ZM31.8446 22.7039C31.967 23.1709 32.0267 23.6521 32.0223 24.1348C32.0223 28.9194 26.6478 32.7911 20.0207 32.7911C13.4203 32.7911 8.04586 28.9196 8.04586 24.1348C8.04146 23.6595 8.09211 23.1852 8.1968 22.7215C5.30086 21.2641 6.34016 17.0064 9.50273 17.0064C9.91108 17.0051 10.3154 17.0869 10.6911 17.2469C11.0668 17.4069 11.406 17.6417 11.688 17.937C13.7223 16.5323 16.4318 15.6194 19.4433 15.4964L21.1755 7.63937C21.2555 7.35812 21.5309 7.16531 21.8063 7.23555L27.3496 8.46461C27.5311 8.10711 27.8046 7.80447 28.142 7.58791C28.4794 7.37135 28.8685 7.2487 29.2691 7.2326C29.6697 7.2165 30.0674 7.30754 30.421 7.49633C30.7747 7.68512 31.0717 7.96483 31.2813 8.30662C31.4908 8.6484 31.6055 9.0399 31.6133 9.44075C31.6212 9.8416 31.522 10.2373 31.326 10.587C31.1299 10.9368 30.8442 11.2279 30.4981 11.4304C30.1521 11.6329 29.7583 11.7395 29.3574 11.7391C28.7655 11.7358 28.199 11.4986 27.7812 11.0792C27.3635 10.6599 27.1286 10.0924 27.1277 9.50047L22.1085 8.36766L20.5362 15.4873C23.5743 15.5839 26.3104 16.497 28.3358 17.9014C28.6176 17.6151 28.9537 17.3876 29.3243 17.2324C29.6949 17.0772 30.0927 16.9972 30.4945 16.9972C33.648 16.9977 34.6875 21.2291 31.8446 22.7039Z" fill="#1CC287"/>
<path d="M24.9512 20.7813C24.5129 20.7839 24.0852 20.916 23.7219 21.1611C23.3586 21.4061 23.0759 21.7532 22.9094 22.1586C22.7429 22.5639 22.7 23.0095 22.7861 23.4392C22.8722 23.8689 23.0835 24.2635 23.3934 24.5734C23.7033 24.8833 24.0979 25.0946 24.5276 25.1807C24.9573 25.2669 25.4029 25.224 25.8083 25.0574C26.2136 24.8909 26.5607 24.6082 26.8058 24.2449C27.0508 23.8816 27.183 23.4539 27.1855 23.0157C27.1872 22.7218 27.1305 22.4305 27.0188 22.1587C26.9071 21.8868 26.7426 21.6399 26.5348 21.4321C26.327 21.2243 26.08 21.0597 25.8082 20.948C25.5363 20.8363 25.2451 20.7796 24.9512 20.7813ZM24.2526 27.5675C23.4302 28.3889 21.7164 28.7947 20.0074 28.7951C18.2984 28.7955 16.5847 28.3889 15.7622 27.5675C15.7111 27.517 15.6504 27.4772 15.5838 27.4504C15.5172 27.4235 15.446 27.4101 15.3742 27.411C15.3024 27.4118 15.2314 27.4269 15.1655 27.4554C15.0996 27.4838 15.0399 27.525 14.99 27.5767C14.9401 27.6283 14.9009 27.6893 14.8747 27.7562C14.8486 27.8231 14.8359 27.8945 14.8375 27.9663C14.8391 28.038 14.8549 28.1088 14.884 28.1745C14.9131 28.2401 14.955 28.2993 15.0071 28.3487C16.0432 29.3902 18.0253 29.9102 20.0071 29.9091C21.9892 29.9102 23.9713 29.3902 25.0071 28.3487C25.109 28.2482 25.1671 28.1115 25.1688 27.9684C25.1705 27.8253 25.1157 27.6873 25.0162 27.5844C24.9168 27.4815 24.7807 27.422 24.6376 27.4188C24.4945 27.4156 24.356 27.469 24.252 27.5675H24.2526Z" fill="#1CC287"/>
</g>
<defs>
<clipPath id="clip0_207_14314">
<rect width="40" height="40" fill="white"/>
</clipPath>
</defs>
</svg>
