<svg width="40" height="40" viewBox="0 0 40 40" fill="none" xmlns="http://www.w3.org/2000/svg">
<g clip-path="url(#clip0_207_14301)">
<path d="M15.2395 18.7578V18.7449C13.7444 18.7449 12.5379 19.9808 12.5379 21.4999C12.5379 23.0189 13.7444 24.255 15.2395 24.255C16.7345 24.255 17.9411 23.019 17.9411 21.5128C17.9411 19.9935 16.7214 18.7578 15.2395 18.7578Z" fill="#1CC287"/>
<path d="M20 0.46875C9.2132 0.46875 0.46875 9.2132 0.46875 20C0.46875 30.7868 9.2132 39.5312 20 39.5312C30.7868 39.5312 39.5312 30.7868 39.5312 20C39.5312 9.2132 30.7868 0.46875 20 0.46875ZM27.2261 30.3055C27.2261 30.3055 26.2422 29.2109 25.5343 28.2457C28.9441 27.2802 30.2296 25.3491 30.2296 25.3491C26.6844 27.5411 23.3734 28.3845 20 28.2748C16.6266 28.3842 13.3156 27.5411 9.77078 25.3491C9.77078 25.3491 11.0559 27.2802 14.4661 28.2457C13.758 29.2113 12.7744 30.3055 12.7744 30.3055C6.92492 30.1768 4.65625 26.5979 4.525 26.7523C4.525 18.7836 8.39375 12.295 8.39375 12.295C11.8559 9.81063 15.0821 9.70734 15.6984 9.69445L16.092 10.0678C11.6723 11.3037 9.53469 13.2348 9.53469 13.2348C13.3279 11.4027 16.903 10.7582 20 10.7196C23.097 10.7587 26.6719 11.4027 30.4653 13.2348C30.4653 13.2348 28.3277 11.3037 23.9081 10.0678L24.3016 9.69445C24.918 9.70734 28.1441 9.81031 31.6063 12.295C31.6063 12.295 35.4749 18.7834 35.4749 26.7523C35.3438 26.5979 33.0751 30.1768 27.2261 30.3055Z" fill="#1CC287"/>
<path d="M24.7605 18.7449V18.7578C23.2786 18.7578 22.0589 19.9937 22.0589 21.5128C22.0589 23.019 23.2655 24.255 24.7605 24.255C26.2555 24.255 27.4621 23.019 27.4621 21.4999C27.4621 19.9807 26.2556 18.7449 24.7605 18.7449Z" fill="#1CC287"/>
</g>
<defs>
<clipPath id="clip0_207_14301">
<rect width="40" height="40" fill="white"/>
</clipPath>
</defs>
</svg>
