<svg width="40" height="40" viewBox="0 0 40 40" fill="none" xmlns="http://www.w3.org/2000/svg">
<g clip-path="url(#clip0_207_14321)">
<path fill-rule="evenodd" clip-rule="evenodd" d="M19.9361 0.606035C23.5418 0.647181 26.7993 1.53338 29.7084 3.26463C32.5828 4.96128 34.9739 7.36697 36.653 10.2517C38.3736 13.1783 39.2545 16.4554 39.2955 20.0831C39.1933 25.0467 37.6278 29.286 34.5989 32.8011C31.57 36.3163 27.6907 38.491 23.6749 39.3246V25.4085H27.4715L28.3301 19.9398H22.5812V16.3579C22.5492 15.6154 22.7841 14.8859 23.2432 14.3014C23.7029 13.7153 24.5126 13.4073 25.6721 13.3773H29.1437V8.58682C29.0938 8.57077 28.6212 8.50739 27.7257 8.39666C26.7101 8.27782 25.6888 8.21434 24.6663 8.2065C22.3521 8.21718 20.5219 8.86999 19.1756 10.1649C17.8293 11.4595 17.1415 13.3324 17.1124 15.7837V19.9398H12.7374V25.4085H17.1124V39.3247C12.1815 38.4911 8.30225 36.3164 5.27334 32.8013C2.24444 29.2861 0.67897 25.0467 0.576782 20.0831C0.617668 16.4553 1.4985 13.1781 3.21928 10.2517C4.89839 7.36694 7.28947 4.96122 10.1639 3.26455C13.073 1.53367 16.3304 0.647546 19.9361 0.606035Z" fill="#1CC287"/>
</g>
<defs>
<clipPath id="clip0_207_14321">
<rect width="40" height="40" fill="white"/>
</clipPath>
</defs>
</svg>
