<svg width="40" height="40" viewBox="0 0 40 40" fill="none" xmlns="http://www.w3.org/2000/svg">
<g clip-path="url(#clip0_207_14308)">
<path d="M20 0C16.0444 0 12.1776 1.17298 8.8886 3.37061C5.59962 5.56824 3.03617 8.69181 1.52242 12.3463C0.00866564 16.0009 -0.387401 20.0222 0.384303 23.9018C1.15601 27.7814 3.06082 31.3451 5.85787 34.1421C8.65492 36.9392 12.2186 38.844 16.0982 39.6157C19.9778 40.3874 23.9992 39.9913 27.6537 38.4776C31.3082 36.9638 34.4318 34.4004 36.6294 31.1114C38.827 27.8224 40 23.9556 40 20C40 14.6957 37.8929 9.60859 34.1421 5.85786C30.3914 2.10714 25.3043 0 20 0ZM29.0158 17.7711C27.2316 17.9684 25.7026 17.2632 24.1737 16.3632C24.1737 16.5105 24.2184 21.0789 24.1421 23.2579C24.0658 25.4974 23.2658 27.4684 21.5105 28.9395C17.7895 32.0632 12.5079 30.3763 11.2474 25.6C10.5632 22.9974 11.1579 20.6526 13.2 18.7974C14.35 17.7447 15.7684 17.2763 17.2895 17.0816C17.6158 17.0395 17.9447 17.0211 18.2974 16.9895V20.5263C17.85 20.6368 17.3974 20.7342 16.9526 20.8658C16.6441 20.9549 16.3432 21.0684 16.0526 21.2053C15.6473 21.3875 15.2895 21.6607 15.0067 22.0035C14.724 22.3464 14.5239 22.7497 14.4221 23.1823C14.3204 23.6149 14.3195 24.0651 14.4198 24.4981C14.52 24.931 14.7185 25.3351 15 25.6789C15.3385 26.147 15.7989 26.5133 16.3311 26.7378C16.8633 26.9624 17.4469 27.0367 18.0184 26.9526C19.1684 26.8132 19.8895 26.0895 20.3158 25.05C20.6106 24.2274 20.7385 23.3542 20.6921 22.4816C20.6763 18.1868 20.6763 13.8947 20.6684 9.6C20.6721 9.55583 20.6783 9.5119 20.6869 9.46842H24.1211C24.5053 12.3421 25.9632 14.1632 29.0158 14.4211V17.7711Z" fill="#1CC287"/>
</g>
<defs>
<clipPath id="clip0_207_14308">
<rect width="40" height="40" fill="white"/>
</clipPath>
</defs>
</svg>
