<svg width="40" height="40" viewBox="0 0 40 40" fill="none" xmlns="http://www.w3.org/2000/svg">
<g clip-path="url(#clip0_207_14290)">
<path d="M20 0C8.97204 0 0 8.97204 0 20C0 31.0271 8.97204 40 20 40C31.0271 40 40 31.0271 40 20C40 8.97204 31.0288 0 20 0ZM28.9221 15.4225C28.931 15.6207 28.9358 15.8205 28.9358 16.0203C28.9358 22.1034 24.3068 29.1154 15.8374 29.1154C13.2377 29.1154 10.8177 28.3558 8.78112 27.0491C9.14122 27.0918 9.50777 27.1135 9.87916 27.1135C12.0366 27.1135 14.0208 26.3772 15.5966 25.143C14.6359 25.1249 13.7049 24.807 12.9338 24.2336C12.1627 23.6603 11.5902 22.8603 11.2962 21.9455C11.986 22.0774 12.6966 22.0509 13.3747 21.8682C12.3328 21.6577 11.3959 21.0931 10.7229 20.2703C10.0499 19.4476 9.68236 18.4173 9.68259 17.3544L9.6834 17.2964C10.3223 17.6515 11.0369 17.8488 11.7675 17.8716C11.1372 17.4511 10.6205 16.8813 10.2634 16.2131C9.90628 15.5448 9.71978 14.7986 9.72045 14.0409C9.72045 13.1966 9.94683 12.4055 10.3432 11.7256C11.499 13.1478 12.9409 14.3111 14.5754 15.14C16.2099 15.9688 18.0005 16.4447 19.8308 16.5367C19.7511 16.1925 19.7114 15.8403 19.7124 15.487C19.7118 14.5635 19.989 13.6612 20.508 12.8974C21.0269 12.1335 21.7636 11.5434 22.6223 11.2037C23.481 10.864 24.4221 10.7904 25.3231 10.9926C26.2242 11.1947 27.0437 11.6631 27.675 12.3371C28.7065 12.1346 29.6957 11.7567 30.5994 11.2197C30.2548 12.2864 29.5345 13.1917 28.5725 13.767C29.4852 13.6597 30.3765 13.4156 31.2165 13.0428C30.6006 13.9672 29.8234 14.7733 28.9221 15.4225Z" fill="#1CC287"/>
</g>
<defs>
<clipPath id="clip0_207_14290">
<rect width="40" height="40" fill="white"/>
</clipPath>
</defs>
</svg>
