<svg width="40" height="40" viewBox="0 0 40 40" fill="none" xmlns="http://www.w3.org/2000/svg">
<g clip-path="url(#clip0_207_14342)">
<path d="M20 24.1016C22.2652 24.1016 24.1016 22.2652 24.1016 20C24.1016 17.7348 22.2652 15.8984 20 15.8984C17.7348 15.8984 15.8984 17.7348 15.8984 20C15.8984 22.2652 17.7348 24.1016 20 24.1016Z" fill="#1CC287"/>
<path d="M20 0.46875C9.2132 0.46875 0.46875 9.2132 0.46875 20C0.46875 30.7868 9.2132 39.5312 20 39.5312C30.7868 39.5312 39.5312 30.7868 39.5312 20C39.5312 9.2132 30.7868 0.46875 20 0.46875ZM32.067 24.9641C31.9733 26.8209 31.4515 28.652 30.0983 29.9909C28.732 31.3424 26.8922 31.846 25.0174 31.9388H14.9827C13.1077 31.846 11.2681 31.3427 9.9018 29.9909C8.54852 28.652 8.0268 26.8209 7.93305 24.9641V15.0359C8.0268 13.1791 8.54859 11.348 9.9018 10.0091C11.2681 8.6575 13.1079 8.15391 14.9827 8.06117H25.0173C26.8923 8.15391 28.7319 8.65727 30.0982 10.0091C31.4515 11.348 31.9732 13.1791 32.067 15.0359L32.067 24.9641Z" fill="#1CC287"/>
<path d="M24.8906 10.3232C22.4464 10.2562 17.5542 10.2562 15.11 10.3232C13.8381 10.3581 12.3961 10.6748 11.4899 11.6428C10.5481 12.6489 10.1923 13.8646 10.1562 15.2245C10.0927 17.6113 10.1562 24.7754 10.1562 24.7754C10.1975 26.1352 10.5481 27.351 11.4899 28.3571C12.3961 29.3254 13.8381 29.6417 15.11 29.6767C17.5542 29.7437 22.4464 29.7437 24.8906 29.6767C26.1626 29.6417 27.6045 29.3251 28.5108 28.3571C29.4525 27.351 29.8084 26.1353 29.8445 24.7754V15.2245C29.8084 13.8646 29.4525 12.6489 28.5108 11.6428C27.6042 10.6745 26.1623 10.3581 24.8906 10.3232ZM20 26.3574C18.7426 26.3574 17.5135 25.9845 16.468 25.2859C15.4225 24.5874 14.6077 23.5945 14.1265 22.4328C13.6453 21.2712 13.5194 19.9929 13.7647 18.7597C14.0101 17.5265 14.6155 16.3937 15.5046 15.5046C16.3937 14.6155 17.5265 14.01 18.7597 13.7647C19.993 13.5194 21.2712 13.6453 22.4329 14.1264C23.5946 14.6076 24.5875 15.4225 25.286 16.4679C25.9846 17.5134 26.3574 18.7426 26.3574 19.9999C26.3574 21.686 25.6876 23.3031 24.4954 24.4953C23.3031 25.6876 21.6861 26.3574 20 26.3574ZM26.3845 14.9548C26.133 14.9547 25.8872 14.8801 25.6782 14.7404C25.4691 14.6006 25.3062 14.402 25.21 14.1697C25.1138 13.9373 25.0887 13.6817 25.1378 13.4351C25.1869 13.1884 25.308 12.9619 25.4858 12.7841C25.6636 12.6063 25.8902 12.4853 26.1368 12.4362C26.3835 12.3872 26.6391 12.4124 26.8714 12.5086C27.1037 12.6049 27.3023 12.7678 27.442 12.9769C27.5817 13.186 27.6563 13.4318 27.6563 13.6833C27.6563 13.8503 27.6234 14.0157 27.5594 14.1699C27.4955 14.3242 27.4018 14.4644 27.2837 14.5825C27.1656 14.7006 27.0254 14.7942 26.8711 14.8581C26.7168 14.922 26.5515 14.9548 26.3845 14.9548Z" fill="#1CC287"/>
</g>
<defs>
<clipPath id="clip0_207_14342">
<rect width="40" height="40" fill="white"/>
</clipPath>
</defs>
</svg>
